<?xml version="1.0" encoding="utf-8"?>
<!-- Generator: Adobe Illustrator 16.0.0, SVG Export Plug-In . SVG Version: 6.00 Build 0)  -->
<!DOCTYPE svg PUBLIC "-//W3C//DTD SVG 1.1//EN" "http://www.w3.org/Graphics/SVG/1.1/DTD/svg11.dtd">
<svg version="1.1" id="Ebene_1" xmlns="http://www.w3.org/2000/svg" xmlns:xlink="http://www.w3.org/1999/xlink" x="0px" y="0px"
	 width="841.889px" height="595.281px" viewBox="0 0 841.889 595.281" enable-background="new 0 0 841.889 595.281"
	 xml:space="preserve">
<path fill="#3E3E40" d="M710.887,297.64c0-161.649-130.859-289.942-289.942-289.942c-161.649,0-289.942,130.858-289.942,289.942
	c0,161.649,128.293,292.509,289.942,292.509h2.565V364.353h-56.448v-56.449h56.448v-41.055c0-20.526,2.566-38.487,10.264-53.883
	c7.698-15.396,17.961-28.225,30.791-35.922c12.829-7.697,30.79-12.829,51.316-12.829c7.698,0,12.83,0,20.527,0
	s12.829,2.565,20.527,2.565c5.131,0,12.829,2.566,17.961,2.566l-10.264,61.58c0,0-5.132-2.565-7.697-5.132
	c-2.566-2.565-7.698-2.565-10.264-5.132c-5.132,0-7.698-2.565-15.396-2.565s-15.396,2.565-20.526,7.697
	c-2.566,5.132-7.698,12.83-7.698,17.961c-2.565,7.698-2.565,15.396-2.565,23.093v38.488h66.712v56.449h-66.712v215.532
	C621.082,543.964,710.887,431.065,710.887,297.64"/>
</svg>
