<?xml version="1.0" encoding="utf-8"?>
<!-- Generator: Adobe Illustrator 16.0.0, SVG Export Plug-In . SVG Version: 6.00 Build 0)  -->
<!DOCTYPE svg PUBLIC "-//W3C//DTD SVG 1.1//EN" "http://www.w3.org/Graphics/SVG/1.1/DTD/svg11.dtd">
<svg version="1.1" id="Ebene_1" xmlns="http://www.w3.org/2000/svg" xmlns:xlink="http://www.w3.org/1999/xlink" x="0px" y="0px"
	 width="841.889px" height="595.281px" viewBox="0 0 841.889 595.281" enable-background="new 0 0 841.889 595.281"
	 xml:space="preserve">
<path fill="#3E3E40" d="M423.511,241.229c-30.79,0-56.448,25.659-56.448,56.449c0,30.792,25.658,56.45,56.448,56.45
	c30.791,0,56.449-25.658,56.449-56.45C477.395,266.888,454.302,241.229,423.511,241.229 M528.712,277.152h-23.094
	c2.565,7.697,2.565,15.395,2.565,25.659c0,46.186-38.488,84.674-84.674,84.674c-46.185,0-84.673-38.488-84.673-84.674
	c0-7.698,0-17.961,2.564-25.659h-25.657v120.596c0,5.133,5.132,10.265,10.264,10.265h192.438c5.132,0,10.265-5.132,10.265-10.265
	L528.712,277.152L528.712,277.152z M485.092,187.346c-7.697,0-12.829,5.132-12.829,12.828v30.791
	c0,7.697,5.132,12.829,12.829,12.829h30.79c7.697,0,12.83-5.132,12.83-12.829v-30.791c0-7.696-5.133-12.828-12.83-12.828H485.092z
	 M320.877,156.556h205.269c20.527,0,35.922,15.395,35.922,35.922v210.402c0,20.525-15.395,35.922-35.922,35.922H320.877
	c-20.527,0-35.922-15.396-35.922-35.922V192.478C284.955,169.385,300.35,156.556,320.877,156.556z M713.453,297.678
	c0-161.649-130.858-289.942-289.942-289.942C261.863,5.17,131.003,136.029,131.003,297.678
	c0,159.084,130.858,289.943,292.508,289.943C582.595,587.622,713.453,456.762,713.453,297.678z"/>
</svg>
