<?xml version="1.0" encoding="utf-8"?>
<!-- Generator: Adobe Illustrator 16.0.0, SVG Export Plug-In . SVG Version: 6.00 Build 0)  -->
<!DOCTYPE svg PUBLIC "-//W3C//DTD SVG 1.1//EN" "http://www.w3.org/Graphics/SVG/1.1/DTD/svg11.dtd">
<svg version="1.1" id="Ebene_1" xmlns="http://www.w3.org/2000/svg" xmlns:xlink="http://www.w3.org/1999/xlink" x="0px" y="0px"
	 width="841.889px" height="595.281px" viewBox="0 0 841.889 595.281" enable-background="new 0 0 841.889 595.281"
	 xml:space="preserve">
<g>
	<path fill="#3E3E40" d="M423.51,7.698c-161.648,0-292.508,130.858-292.508,289.942c0,161.649,130.859,292.509,289.942,292.509
		c161.649,0,292.509-130.859,292.509-292.509S582.594,7.698,423.51,7.698z M538.974,243.757v7.698
		c0,76.976-56.448,166.781-161.648,166.781c-33.356,0-61.581-10.264-87.239-25.659c2.565,0,7.697,0,12.829,0
		c25.658,0,51.317-7.697,71.844-23.093c-25.658,0-46.186-17.961-53.883-41.054c2.565,0,7.697,0,10.264,0
		c5.132,0,10.263,0,15.395-2.565c-25.658-5.132-46.186-28.225-46.186-56.449c7.698,5.132,15.396,7.697,25.659,7.697
		c-15.396-10.264-25.659-28.225-25.659-48.751c0-10.264,2.566-20.527,10.264-30.791c25.659,35.923,69.278,59.016,115.464,61.581
		c-2.566-2.565-2.566-7.697-2.566-12.829c0-33.356,25.659-59.015,56.449-59.015c15.396,0,30.791,7.697,41.054,17.961
		c12.829-2.566,25.659-7.698,35.923-12.829c-5.132,15.395-12.83,25.658-25.659,33.355c12.829-2.565,23.093-5.132,33.356-10.263
		C556.936,225.796,546.672,236.059,538.974,243.757z"/>
	<path fill="none" d="M556.936,192.44c-10.264,5.131-23.094,10.263-35.923,12.829c-10.263-10.264-25.658-17.961-41.054-17.961
		c-30.79,0-56.449,25.658-56.449,59.015c0,5.132,0,10.264,2.566,12.829c-46.186-2.565-89.805-25.658-115.464-61.581
		c-7.697,10.264-10.264,20.527-10.264,30.791c0,20.526,10.264,38.487,25.659,48.751c-10.264,0-17.961-2.565-25.659-7.697
		c0,28.225,20.527,51.317,46.186,56.449c-5.132,2.565-10.263,2.565-15.395,2.565c-2.566,0-7.698,0-10.264,0
		c7.697,23.093,28.225,41.054,53.883,41.054c-20.526,15.396-46.186,23.093-71.844,23.093c-5.132,0-10.264,0-12.829,0
		c25.658,15.396,53.883,25.659,87.239,25.659c105.2,0,161.648-89.806,161.648-166.781v-7.698
		c7.698-7.697,17.962-17.961,25.659-28.224c-10.264,5.131-20.527,7.697-33.356,10.263
		C544.106,218.098,551.804,207.835,556.936,192.44z"/>
</g>
</svg>
