<?xml version="1.0" encoding="utf-8"?>
<!-- Generator: Adobe Illustrator 16.0.0, SVG Export Plug-In . SVG Version: 6.00 Build 0)  -->
<!DOCTYPE svg PUBLIC "-//W3C//DTD SVG 1.1//EN" "http://www.w3.org/Graphics/SVG/1.1/DTD/svg11.dtd">
<svg version="1.1" id="Ebene_1" xmlns="http://www.w3.org/2000/svg" xmlns:xlink="http://www.w3.org/1999/xlink" x="0px" y="0px"
	 width="841.889px" height="595.281px" viewBox="0 0 841.889 595.281" enable-background="new 0 0 841.889 595.281"
	 xml:space="preserve">
<g id="Layer_2">
</g>
<g>
	<path fill="none" d="M405.552,259.153c-5.132-2.565-7.699-2.565-10.264,0c-2.567,0-5.133,5.132-5.133,7.697v64.146
		c0,2.565,0,7.697,5.133,7.697c2.565,2.566,2.565,2.566,5.132,2.566c2.565,0,2.565,0,5.132,0l59.015-33.356
		c2.566,0,5.131-5.132,5.131-7.698c0-2.564-2.565-5.132-5.131-7.697L405.552,259.153z"/>
	<g>
		<path fill="#3E3E40" d="M423.511,7.698c-161.648,0-292.508,130.858-292.508,289.942c0,161.648,130.858,292.509,289.941,292.509
			c161.65,0,292.509-130.859,292.509-292.509S582.595,7.698,423.511,7.698z M567.199,325.865c0,30.79-2.565,51.317-15.395,61.581
			c-12.83,10.264-30.791,15.396-61.581,15.396H356.799c-64.147,0-76.977-28.226-76.977-79.542v-51.317
			c0-25.659,0-46.187,10.265-59.016c10.263-12.828,28.224-17.961,66.712-17.961h130.858c38.488,0,56.449,5.132,69.279,17.962
			c10.263,12.828,10.263,33.355,10.263,61.58V325.865z"/>
		<path fill="#3E3E40" d="M405.552,259.153c-5.132-2.565-7.699-2.565-10.264,0c-2.567,0-5.133,5.132-5.133,7.697v64.146
			c0,2.565,0,7.697,5.133,7.697c2.565,2.566,2.565,2.566,5.132,2.566c2.565,0,2.565,0,5.132,0l59.015-33.356
			c2.566,0,5.131-5.132,5.131-7.698c0-2.564-2.565-5.132-5.131-7.697L405.552,259.153z"/>
		<path fill="none" d="M487.657,195.006H356.799c-38.488,0-56.449,5.133-66.712,17.961c-10.265,12.829-10.265,33.356-10.265,59.016
			V323.3c0,51.316,12.829,79.542,76.977,79.542h133.425c30.79,0,48.751-5.132,61.581-15.396
			c12.829-10.264,15.395-30.791,15.395-61.581v-51.317c0-28.225,0-48.752-10.263-61.58
			C544.107,200.137,526.146,195.006,487.657,195.006z M464.567,307.904l-59.015,33.356c-2.566,0-2.566,0-5.132,0
			c-2.566,0-2.566,0-5.132-2.566c-5.133,0-5.133-5.132-5.133-7.697V266.85c0-2.565,2.565-7.697,5.133-7.697
			c2.564-2.565,5.132-2.565,10.264,0l59.015,33.355c2.565,2.565,5.131,5.133,5.131,7.697
			C469.698,302.772,467.133,307.904,464.567,307.904z"/>
	</g>
</g>
<g id="Layer_2_copy">
</g>
</svg>
