<?xml version="1.0" encoding="utf-8"?>
<!-- Generator: Adobe Illustrator 16.0.0, SVG Export Plug-In . SVG Version: 6.00 Build 0)  -->
<!DOCTYPE svg PUBLIC "-//W3C//DTD SVG 1.1//EN" "http://www.w3.org/Graphics/SVG/1.1/DTD/svg11.dtd">
<svg version="1.1" id="Layer_1" xmlns="http://www.w3.org/2000/svg" xmlns:xlink="http://www.w3.org/1999/xlink" x="0px" y="0px"
	 width="142.268px" height="105.264px" viewBox="0 0 142.268 105.264" enable-background="new 0 0 142.268 105.264"
	 xml:space="preserve">
<g>
	<path fill="#3E3E40" d="M8.574,19.05H8.6c0,1.871,2.069,3.389,4.63,3.407v0.003h124.425v-0.001
		c2.573-0.009,4.658-1.529,4.658-3.409h0.021V3.333l0,0c-0.006-1.879-2.1-3.402-4.681-3.402l0,0H13.229l0,0l0,0
		c-2.582,0-4.679,1.527-4.679,3.408c0,0.06,0.021,0.115,0.026,0.174L8.574,19.05z"/>
	<path fill="#3E3E40" d="M137.655,37.424L137.655,37.424H13.229l0,0l0,0c-2.582,0-4.679,1.528-4.679,3.411
		c0,0.059,0.021,0.112,0.026,0.173v15.538H8.6c0,1.869,2.069,3.388,4.63,3.405v0.003h124.429v-0.001
		c2.572-0.011,4.653-1.529,4.653-3.407h0.021V40.829l0,0C142.323,38.947,140.234,37.424,137.655,37.424z"/>
	<path fill="#3E3E40" d="M137.655,74.917L137.655,74.917H13.229l0,0l0,0c-2.582,0-4.679,1.525-4.679,3.409
		c0,0.06,0.021,0.112,0.026,0.173v15.537H8.6c0,1.872,2.069,3.388,4.63,3.406v0.003h124.429v-0.003
		c2.572-0.009,4.653-1.527,4.653-3.406h0.021V78.32l0,0C142.323,76.441,140.234,74.917,137.655,74.917z"/>
</g>
</svg>
