<?xml version="1.0" encoding="utf-8"?>
<!-- Generator: Adobe Illustrator 16.0.0, SVG Export Plug-In . SVG Version: 6.00 Build 0)  -->
<!DOCTYPE svg PUBLIC "-//W3C//DTD SVG 1.1//EN" "http://www.w3.org/Graphics/SVG/1.1/DTD/svg11.dtd">
<svg version="1.1" id="Ebene_1" xmlns="http://www.w3.org/2000/svg" xmlns:xlink="http://www.w3.org/1999/xlink" x="0px" y="0px"
	 width="27.033px" height="27.788px" viewBox="-3.812 -0.716 27.033 27.788" enable-background="new -3.812 -0.716 27.033 27.788"
	 xml:space="preserve">
<path fill="#3E3E40" d="M21.678,20.999l-6.601-6.602c0.698-1.397,1.101-2.897,1.101-4.5C16.178,4.4,11.78,0,6.281,0
	c-5.5,0-9.898,4.398-9.898,9.897c0,5.5,4.398,9.898,9.898,9.898c1.602,0,3.197-0.398,4.499-1.103l6.603,6.603
	c1,0.999,2.699,0.999,3.8,0l0.5-0.5C22.678,23.701,22.678,21.999,21.678,20.999z M6.279,16.8c-3.898,0-7-3.102-7-7
	c0-3.897,3.102-7,7-7c3.897,0,6.999,3.103,6.999,7C13.278,13.701,10.178,16.8,6.279,16.8z"/>
</svg>
