<?xml version="1.0" encoding="utf-8"?>
<!-- Generator: Adobe Illustrator 16.0.0, SVG Export Plug-In . SVG Version: 6.00 Build 0)  -->
<!DOCTYPE svg PUBLIC "-//W3C//DTD SVG 1.1//EN" "http://www.w3.org/Graphics/SVG/1.1/DTD/svg11.dtd">
<svg version="1.1" id="Layer_1" xmlns="http://www.w3.org/2000/svg" xmlns:xlink="http://www.w3.org/1999/xlink" x="0px" y="0px"
	 width="48.852px" height="48.852px" viewBox="0 0 48.852 48.852" enable-background="new 0 0 48.852 48.852" xml:space="preserve">
<polygon fill="#3E3E40" points="24.426,0 20.987,2.714 16.878,1.195 14.446,4.838 10.068,4.665 8.881,8.881 4.665,10.068 
	4.838,14.446 1.196,16.878 2.713,20.987 0,24.426 2.713,27.864 1.196,31.973 4.838,34.406 4.665,38.783 8.881,39.97 10.068,44.186 
	14.446,44.013 16.878,47.656 20.987,46.139 24.426,48.852 27.865,46.139 31.973,47.656 34.406,44.013 38.784,44.186 39.971,39.97 
	44.187,38.783 44.014,34.406 47.657,31.973 46.139,27.864 48.852,24.426 46.139,20.987 47.657,16.878 44.014,14.446 44.187,10.068 
	39.971,8.881 38.784,4.665 34.406,4.838 31.973,1.195 27.865,2.714 "/>
<polygon fill="#14A5DF" points="24.143,2.711 27.2,5.123 30.853,3.773 33.016,7.012 36.906,6.858 37.962,10.607 41.71,11.662 
	41.557,15.553 44.794,17.715 43.445,21.369 45.857,24.426 43.445,27.482 44.794,31.136 41.557,33.298 41.71,37.19 37.962,38.246 
	36.906,41.993 33.016,41.839 30.853,45.079 27.2,43.729 24.143,46.141 21.085,43.729 17.432,45.079 15.27,41.839 11.378,41.993 
	10.323,38.246 6.575,37.19 6.729,33.298 3.491,31.136 4.839,27.482 2.428,24.426 4.839,21.369 3.491,17.715 6.729,15.553 
	6.575,11.662 10.323,10.607 11.378,6.858 15.27,7.012 17.432,3.773 21.085,5.123 "/>
<polygon fill="#FFFFFF" points="8.862,23.887 7.634,23.887 7.634,19.118 6.062,19.118 6.062,18.096 10.434,18.096 10.434,19.118 
	8.862,19.118 "/>
<rect x="12.023" y="18.096" fill="#FFFFFF" width="1.228" height="5.791"/>
<g>
	<defs>
		<rect id="SVGID_1_" width="48.852" height="48.852"/>
	</defs>
	<clipPath id="SVGID_2_">
		<use xlink:href="#SVGID_1_"  overflow="visible"/>
	</clipPath>
	<path clip-path="url(#SVGID_2_)" fill="#FFFFFF" d="M17.866,19.035c-0.462,0-0.82,0.174-1.073,0.521
		c-0.254,0.347-0.381,0.831-0.381,1.452c0,1.291,0.485,1.936,1.454,1.936c0.407,0,0.899-0.101,1.477-0.305v1.03
		c-0.475,0.198-1.006,0.297-1.592,0.297c-0.842,0-1.487-0.255-1.933-0.766c-0.446-0.511-0.669-1.244-0.669-2.2
		c0-0.602,0.109-1.13,0.329-1.583c0.219-0.453,0.534-0.8,0.944-1.041c0.411-0.242,0.892-0.363,1.444-0.363
		c0.562,0,1.128,0.136,1.695,0.408l-0.396,0.998c-0.216-0.103-0.434-0.193-0.653-0.269C18.292,19.073,18.077,19.035,17.866,19.035"
		/>
	<polygon clip-path="url(#SVGID_2_)" fill="#FFFFFF" points="25.931,23.887 24.537,23.887 23.02,21.447 22.501,21.819 
		22.501,23.887 21.273,23.887 21.273,18.096 22.501,18.096 22.501,20.746 22.984,20.065 24.553,18.096 25.915,18.096 23.895,20.659 
			"/>
	<polygon clip-path="url(#SVGID_2_)" fill="#FFFFFF" points="30.692,23.887 27.357,23.887 27.357,18.096 30.692,18.096 
		30.692,19.102 28.586,19.102 28.586,20.374 30.546,20.374 30.546,21.38 28.586,21.38 28.586,22.873 30.692,22.873 	"/>
	<polygon clip-path="url(#SVGID_2_)" fill="#FFFFFF" points="34.832,23.887 33.604,23.887 33.604,19.118 32.032,19.118 
		32.032,18.096 36.404,18.096 36.404,19.118 34.832,19.118 	"/>
	<path clip-path="url(#SVGID_2_)" fill="#FFFFFF" d="M41.412,22.279c0,0.523-0.188,0.935-0.564,1.236
		c-0.377,0.301-0.899,0.451-1.571,0.451c-0.617,0-1.163-0.116-1.64-0.348v-1.141c0.391,0.174,0.722,0.297,0.992,0.368
		c0.271,0.072,0.519,0.107,0.743,0.107c0.269,0,0.476-0.051,0.62-0.154c0.144-0.103,0.216-0.256,0.216-0.46
		c0-0.113-0.032-0.214-0.095-0.303c-0.064-0.088-0.157-0.173-0.279-0.255c-0.123-0.082-0.373-0.213-0.751-0.392
		c-0.354-0.167-0.619-0.326-0.796-0.479c-0.178-0.154-0.318-0.332-0.424-0.535c-0.106-0.204-0.158-0.441-0.158-0.713
		c0-0.512,0.173-0.915,0.52-1.208c0.349-0.293,0.828-0.44,1.44-0.44c0.301,0,0.588,0.036,0.861,0.107s0.56,0.172,0.857,0.301
		l-0.396,0.955c-0.31-0.127-0.564-0.216-0.767-0.266c-0.202-0.05-0.401-0.075-0.596-0.075c-0.233,0-0.411,0.054-0.535,0.162
		c-0.124,0.109-0.186,0.25-0.186,0.424c0,0.108,0.024,0.203,0.074,0.283c0.051,0.081,0.13,0.159,0.24,0.234
		c0.109,0.075,0.369,0.211,0.778,0.406c0.541,0.259,0.912,0.518,1.112,0.778C41.312,21.583,41.412,21.901,41.412,22.279"/>
	<polygon clip-path="url(#SVGID_2_)" fill="#FFFFFF" points="11.286,31.662 9.892,31.662 8.375,29.221 7.856,29.593 7.856,31.662 
		6.628,31.662 6.628,25.871 7.856,25.871 7.856,28.52 8.339,27.839 9.908,25.871 11.27,25.871 9.25,28.433 	"/>
	<path clip-path="url(#SVGID_2_)" fill="#FFFFFF" d="M15.763,31.661l-0.42-1.378h-2.111l-0.42,1.378h-1.323l2.044-5.813h1.501
		l2.052,5.813H15.763z M15.05,29.253c-0.388-1.249-0.607-1.955-0.656-2.119c-0.048-0.164-0.083-0.293-0.104-0.389
		c-0.088,0.339-0.337,1.174-0.749,2.508H15.05z"/>
	<path clip-path="url(#SVGID_2_)" fill="#FFFFFF" d="M22.73,25.871v3.747c0,0.428-0.096,0.803-0.287,1.125
		c-0.192,0.321-0.468,0.568-0.83,0.74c-0.362,0.172-0.79,0.258-1.283,0.258c-0.745,0-1.323-0.191-1.735-0.572
		c-0.412-0.382-0.618-0.904-0.618-1.567v-3.73h1.224v3.545c0,0.446,0.09,0.773,0.269,0.981c0.18,0.209,0.477,0.313,0.891,0.313
		c0.402,0,0.693-0.105,0.874-0.315c0.181-0.21,0.271-0.539,0.271-0.987v-3.537H22.73z"/>
	<polygon clip-path="url(#SVGID_2_)" fill="#FFFFFF" points="25.56,31.662 24.352,31.662 24.352,25.871 27.67,25.871 27.67,26.876 
		25.56,26.876 25.56,28.37 27.524,28.37 27.524,29.373 25.56,29.373 	"/>
	<polygon clip-path="url(#SVGID_2_)" fill="#FFFFFF" points="32.342,31.662 29.007,31.662 29.007,25.871 32.342,25.871 
		32.342,26.876 30.234,26.876 30.234,28.148 32.194,28.148 32.194,29.154 30.234,29.154 30.234,30.647 32.342,30.647 	"/>
	<path clip-path="url(#SVGID_2_)" fill="#FFFFFF" d="M38.89,31.662h-1.562L34.81,27.28h-0.035c0.05,0.774,0.075,1.326,0.075,1.656
		v2.726h-1.097v-5.791h1.548l2.516,4.337h0.027c-0.039-0.752-0.06-1.284-0.06-1.597v-2.74h1.105V31.662z"/>
	<path clip-path="url(#SVGID_2_)" fill="#FFFFFF" d="M40.285,31.095c0-0.222,0.059-0.39,0.178-0.503
		c0.119-0.114,0.292-0.171,0.52-0.171c0.219,0,0.389,0.058,0.509,0.175c0.12,0.116,0.18,0.282,0.18,0.499
		c0,0.208-0.061,0.373-0.182,0.493c-0.122,0.12-0.291,0.18-0.507,0.18c-0.223,0-0.395-0.059-0.516-0.176
		C40.345,31.474,40.285,31.309,40.285,31.095 M41.469,29.741h-0.966l-0.202-3.87h1.37L41.469,29.741z"/>
</g>
</svg>
