<?xml version="1.0" encoding="utf-8"?>
<!-- Generator: Adobe Illustrator 19.2.1, SVG Export Plug-In . SVG Version: 6.00 Build 0)  -->
<svg version="1.1" id="Ebene_1" xmlns="http://www.w3.org/2000/svg" xmlns:xlink="http://www.w3.org/1999/xlink" x="0px" y="0px"
	 viewBox="0 0 595.3 595.3" style="enable-background:new 0 0 595.3 595.3;" xml:space="preserve">
<style type="text/css">
	.st0{fill:#F0F0F5;}
	.st1{fill-rule:evenodd;clip-rule:evenodd;fill:#F0F0F5;}
</style>
<path class="st0" d="M342.9,70.6l-0.2,0.2l-0.5-1.7l-0.4,0.3l-0.5-1.6h-1.9l1.8,2.5l0.6-0.3l0.8,1.4l0.3-0.2l0.5,0.9L342.9,70.6z
	 M337.9,73.1l-0.3-0.7c0-0.1,0-0.1,0.1-0.1c0,0,0.1,0,0.1,0.1l0.3,0.7c0,0.1,0,0.1-0.1,0.1C337.9,73.2,337.9,73.2,337.9,73.1z
	 M337.3,71.4l-0.3-0.7c0-0.1,0-0.1,0.1-0.1c0.1,0,0.1,0,0.1,0.1l0.3,0.7c0,0.1,0,0.1-0.1,0.1C337.3,71.5,337.3,71.4,337.3,71.4z
	 M338.2,72.1l-0.3-0.7c0-0.1,0-0.1,0.1-0.1c0,0,0.1,0,0.1,0.1l0.3,0.7c0,0.1,0,0.1-0.1,0.1C338.3,72.2,338.2,72.1,338.2,72.1z
	 M339.1,72.5l-0.3-0.7c0-0.1,0-0.1,0.1-0.1c0,0,0.1,0,0.1,0.1l0.3,0.7c0,0.1,0,0.1-0.1,0.1C339.1,72.5,339.1,72.5,339.1,72.5z
	 M337.3,70.2l-0.3-0.7c0-0.1,0-0.1,0.1-0.1c0.1,0,0.1,0,0.1,0.1l0.3,0.7c0,0.1,0,0.1-0.1,0.1C337.4,70.3,337.3,70.3,337.3,70.2z
	 M338.3,70.9l-0.3-0.7c0-0.1,0-0.1,0.1-0.1c0,0,0.1,0,0.1,0.1l0.3,0.7c0,0.1,0,0.1-0.1,0.1C338.3,71,338.3,70.9,338.3,70.9z
	 M340.3,72.8l-0.3-0.7c0-0.1,0-0.1,0.1-0.1c0.1,0,0.1,0,0.1,0.1l0.3,0.7c0,0.1,0,0.1-0.1,0.1C340.4,72.8,340.3,72.8,340.3,72.8z
	 M339.5,71.5l-0.3-0.7c0-0.1,0-0.1,0.1-0.1c0,0,0.1,0,0.1,0.1l0.3,0.7c0,0.1,0,0.1-0.1,0.1C339.5,71.5,339.5,71.5,339.5,71.5z
	 M337.6,69.4l-0.3-0.7c0-0.1,0-0.1,0.1-0.1c0,0,0.1,0,0.1,0.1l0.3,0.7c0,0.1,0,0.1-0.1,0.1C337.6,69.4,337.6,69.4,337.6,69.4z
	 M341.5,73.1l-0.3-0.7c-0.1-0.1,0-0.2,0.1-0.2c0,0,0.1,0,0.1,0.1l0.3,0.7C341.7,73.1,341.7,73.1,341.5,73.1
	C341.5,73.1,341.5,73.1,341.5,73.1z M338.5,70.1l-0.3-0.7c-0.1-0.1,0-0.2,0.1-0.2c0,0,0.1,0,0.1,0.1l0.3,0.7c0,0.1,0,0.1-0.1,0.2
	C338.6,70.2,338.6,70.1,338.5,70.1z M339.2,70.1l-0.3-0.7c0-0.1,0-0.1,0.1-0.1c0,0,0.1,0,0.1,0.1l0.3,0.7c0,0.1,0,0.1-0.1,0.1
	C339.3,70.2,339.2,70.2,339.2,70.1z M340.2,70.9l-0.3-0.7c0-0.1,0-0.1,0.1-0.1c0,0,0.1,0,0.1,0.1l0.3,0.7c0,0.1,0,0.1-0.1,0.1
	C340.3,71,340.2,71,340.2,70.9z M342.3,72.7l-0.3-0.7c0-0.1,0-0.1,0.1-0.1c0.1,0,0.1,0,0.1,0.1l0.3,0.7c0,0.1,0,0.1-0.1,0.1
	C342.4,72.8,342.3,72.8,342.3,72.7z M342.7,71.5l-0.3,0.2l-0.8-1.4l-0.6,0.3l-2.1-3.1h2.5l0.5,1.4l0.4-0.3l0.5,1.7l0.2-0.2l0.7,2.8
	L342.7,71.5z M344.6,72.9l-0.3-0.7c0-0.1,0-0.1,0.1-0.1c0,0,0.1,0,0.1,0.1l0.3,0.7c0,0.1,0,0.1-0.1,0.1
	C344.6,73,344.6,73,344.6,72.9z M345.1,72.3l-0.3-0.7c0-0.1,0-0.1,0.1-0.1c0.1,0,0.1,0,0.1,0.1l0.3,0.7c0,0.1,0,0.1-0.1,0.1
	C345.2,72.4,345.2,72.3,345.1,72.3z M344.2,71l-0.3-0.7c0-0.1,0-0.1,0.1-0.1c0,0,0.1,0,0.1,0.1l0.3,0.7c0,0.1,0,0.1-0.1,0.1
	C344.2,71,344.2,71,344.2,71z M343.1,69l-0.3-0.7c-0.1-0.1,0-0.2,0.1-0.2c0,0,0.1,0,0.1,0.1l0.3,0.7C343.3,69,343.3,69.1,343.1,69
	C343.1,69.1,343.1,69.1,343.1,69z M345.1,70.6l-0.3-0.7c0-0.1,0-0.1,0.1-0.1c0.1,0,0.1,0,0.1,0.1l0.3,0.7c0,0.1,0,0.1-0.1,0.1
	C345.1,70.7,345.1,70.7,345.1,70.6z M344,69.4l-0.3-0.7c0-0.1,0-0.1,0.1-0.1c0.1,0,0.1,0,0.1,0.1l0.3,0.7c0,0.1,0,0.1-0.1,0.1
	C344,69.5,344,69.5,344,69.4z M344.2,68h-2.5l-0.1-0.5h-3L339,68h-2.3c-0.3,0-0.5-0.1-0.7-0.3c-0.2-0.2-0.3-0.4-0.3-0.7
	c0-0.5,0.2-0.9,0.7-1.3c0.4-0.3,1-0.5,1.6-0.5c0.1-0.5,0.3-1,0.8-1.4c0.5-0.4,1.1-0.6,1.7-0.6c0.5,0,1,0.1,1.3,0.2
	c0.3,0.2,0.6,0.4,0.9,0.8c0.1,0,0.2,0,0.3,0c0.5,0,0.8,0.1,1,0.3c0.2,0.2,0.4,0.5,0.4,0.9c0,0.1,0,0.2,0,0.3
	c0.3,0.1,0.6,0.2,0.8,0.4c0.3,0.2,0.4,0.5,0.4,0.9c0,0.3-0.1,0.5-0.3,0.7C344.8,67.9,344.6,68,344.2,68z"/>
<g>
	<path class="st1" d="M360.5,65.2l-0.1-0.3l0.4-0.4l-0.5,0.3l-0.3-0.4l0.3-0.5l-0.4,0.4l-0.5-0.2l0.1-0.6l-0.2,0.5
		c-0.2-0.1-0.4-0.1-0.5-0.1l-0.1-0.6l0,0.6l-0.1,0l-0.4,0.1l-0.3-0.5l0.2,0.5c-0.1,0-0.2,0.1-0.2,0.1l-0.2,0.1l-0.4-0.4l0.4,0.4
		l-0.3,0.4l-0.5-0.2l0.5,0.3c0,0.1-0.1,0.2-0.1,0.3l-0.1,0.2l-0.6,0l0.6,0.1l0,0.3l0,0.2l-0.5,0.2l0.6-0.1l0.2,0.5l-0.4,0.4l0.5-0.3
		l0.3,0.4l-0.1,0.1c0.4-0.3,0.8-0.4,1.4-0.4c0.1-0.5,0.3-0.9,0.7-1.3C359.9,65.4,360.2,65.3,360.5,65.2"/>
	<path class="st0" d="M365,69.7h-7.2c-0.3,0-0.5-0.1-0.7-0.2c-0.2-0.2-0.3-0.4-0.3-0.7c0-0.5,0.2-0.9,0.6-1.2
		c0.4-0.3,0.9-0.5,1.5-0.5c0.1-0.5,0.3-0.9,0.7-1.3c0.5-0.4,1-0.6,1.6-0.6c0.5,0,0.9,0.1,1.2,0.2c0.3,0.2,0.6,0.4,0.8,0.8
		c0.1,0,0.2,0,0.3,0c0.4,0,0.8,0.1,1,0.3c0.2,0.2,0.3,0.5,0.3,0.8c0,0.1,0,0.1,0,0.3c0.3,0.1,0.6,0.2,0.8,0.3
		c0.2,0.2,0.4,0.5,0.4,0.9c0,0.3-0.1,0.5-0.3,0.6C365.6,69.6,365.3,69.7,365,69.7"/>
</g>
<path class="st0" d="M386.2,70.9H379c-0.3,0-0.5-0.1-0.7-0.3c-0.2-0.2-0.3-0.4-0.3-0.7c0-0.6,0.2-1,0.6-1.3c0.4-0.3,0.9-0.5,1.5-0.5
	c0.1-0.6,0.3-1,0.8-1.5c0.5-0.4,1-0.7,1.7-0.7c0.5,0,0.9,0.1,1.2,0.3c0.3,0.2,0.6,0.5,0.9,0.9c0.1,0,0.1,0,0.2,0
	c0.4,0,0.8,0.1,1,0.3c0.2,0.2,0.4,0.5,0.4,0.8c0,0.1,0,0.3-0.1,0.4c0.3,0.1,0.6,0.2,0.8,0.4c0.2,0.2,0.4,0.6,0.4,1
	c0,0.3-0.1,0.6-0.3,0.7C386.8,70.9,386.5,70.9,386.2,70.9 M386.3,66.7h-1.6c-0.2-0.3-0.6-0.6-0.9-0.8c-0.4-0.2-0.8-0.2-1.2-0.2
	c-0.7,0-1.2,0.2-1.7,0.6c-0.5,0.4-0.8,0.9-0.9,1.6h-1.7c-0.2,0-0.3-0.1-0.4-0.2c-0.1-0.1-0.2-0.3-0.2-0.5c0-0.4,0.1-0.7,0.4-0.9
	c0.3-0.2,0.6-0.3,0.9-0.3c0.1-0.4,0.2-0.7,0.5-1c0.3-0.3,0.6-0.4,1-0.4c0.2,0,0.4,0,0.6,0.1c0.2,0.1,0.3,0.2,0.5,0.3
	c0.3-0.2,0.5-0.3,0.9-0.3c0.1-0.4,0.2-0.7,0.5-1c0.3-0.3,0.6-0.4,1-0.4c0.3,0,0.5,0.1,0.7,0.2c0.2,0.1,0.4,0.3,0.5,0.5h0.2
	c0.5,0,0.8,0.3,0.8,0.8c0,0.1,0,0.2,0,0.2c0.2,0.1,0.4,0.1,0.5,0.3c0.1,0.1,0.2,0.3,0.2,0.6c0,0.2-0.1,0.3-0.2,0.4
	C386.6,66.7,386.5,66.7,386.3,66.7z"/>
<g>
	<path class="st0" d="M349,69.2h-0.2v-2.1h1.2v0.2H349v0.8h0.9v0.2H349V69.2z"/>
	<path class="st0" d="M350.6,68.3v0.9h-0.2v-2.1h0.6c0.3,0,0.5,0.1,0.6,0.2c0.1,0.1,0.2,0.3,0.2,0.5c0,0.3-0.1,0.5-0.4,0.6l0.6,1
		h-0.3l-0.5-0.9H350.6z M350.6,68.1h0.3c0.2,0,0.3,0,0.4-0.1s0.1-0.2,0.1-0.3c0-0.1,0-0.2-0.1-0.3c-0.1-0.1-0.2-0.1-0.4-0.1h-0.3
		V68.1z"/>
</g>
<g>
	<path class="st0" d="M371,68.6c0,0.2-0.1,0.3-0.2,0.4s-0.3,0.2-0.6,0.2c-0.3,0-0.4,0-0.6-0.1v-0.2c0.1,0,0.2,0.1,0.3,0.1
		s0.2,0,0.3,0c0.2,0,0.3,0,0.4-0.1c0.1-0.1,0.1-0.2,0.1-0.3c0-0.1,0-0.1,0-0.2c0,0-0.1-0.1-0.1-0.1c-0.1,0-0.2-0.1-0.3-0.1
		c-0.2-0.1-0.3-0.2-0.4-0.3c-0.1-0.1-0.1-0.2-0.1-0.4c0-0.2,0.1-0.3,0.2-0.4s0.3-0.1,0.5-0.1c0.2,0,0.4,0,0.6,0.1l-0.1,0.2
		c-0.2-0.1-0.3-0.1-0.5-0.1c-0.1,0-0.2,0-0.3,0.1s-0.1,0.1-0.1,0.2c0,0.1,0,0.1,0,0.2s0.1,0.1,0.1,0.1c0.1,0,0.2,0.1,0.3,0.1
		c0.2,0.1,0.4,0.2,0.5,0.3C371,68.4,371,68.5,371,68.6z"/>
	<path class="st0" d="M372.8,69.2l-0.3-0.7h-0.9l-0.3,0.7h-0.3l0.8-2.2h0.2l0.8,2.2H372.8z M372.4,68.3l-0.2-0.7
		c0-0.1-0.1-0.2-0.1-0.3c0,0.1-0.1,0.2-0.1,0.3l-0.3,0.7H372.4z"/>
</g>
<g>
	<path class="st0" d="M392.9,68.6c0,0.2-0.1,0.3-0.2,0.4s-0.3,0.2-0.6,0.2c-0.3,0-0.4,0-0.6-0.1v-0.2c0.1,0,0.2,0.1,0.3,0.1
		s0.2,0,0.3,0c0.2,0,0.3,0,0.4-0.1c0.1-0.1,0.1-0.2,0.1-0.3c0-0.1,0-0.1,0-0.2c0,0-0.1-0.1-0.1-0.1c-0.1,0-0.2-0.1-0.3-0.1
		c-0.2-0.1-0.3-0.2-0.4-0.3c-0.1-0.1-0.1-0.2-0.1-0.4c0-0.2,0.1-0.3,0.2-0.4s0.3-0.1,0.5-0.1c0.2,0,0.4,0,0.6,0.1l-0.1,0.2
		c-0.2-0.1-0.3-0.1-0.5-0.1c-0.1,0-0.2,0-0.3,0.1s-0.1,0.1-0.1,0.2c0,0.1,0,0.1,0,0.2s0.1,0.1,0.1,0.1c0.1,0,0.2,0.1,0.3,0.1
		c0.2,0.1,0.4,0.2,0.5,0.3C392.8,68.4,392.9,68.5,392.9,68.6z"/>
	<path class="st0" d="M395.2,68.1c0,0.3-0.1,0.6-0.3,0.8c-0.2,0.2-0.4,0.3-0.7,0.3c-0.3,0-0.6-0.1-0.7-0.3c-0.2-0.2-0.3-0.5-0.3-0.8
		c0-0.3,0.1-0.6,0.3-0.8c0.2-0.2,0.4-0.3,0.7-0.3c0.3,0,0.5,0.1,0.7,0.3S395.2,67.8,395.2,68.1z M393.5,68.1c0,0.3,0.1,0.5,0.2,0.7
		c0.1,0.2,0.3,0.2,0.5,0.2c0.2,0,0.4-0.1,0.5-0.2s0.2-0.4,0.2-0.7c0-0.3-0.1-0.5-0.2-0.7c-0.1-0.1-0.3-0.2-0.5-0.2
		c-0.2,0-0.4,0.1-0.5,0.2C393.5,67.6,393.5,67.9,393.5,68.1z"/>
</g>
</svg>
