<?xml version="1.0" encoding="utf-8"?>
<!-- Generator: Adobe Illustrator 19.2.1, SVG Export Plug-In . SVG Version: 6.00 Build 0)  -->
<svg version="1.1" id="Ebene_1" xmlns="http://www.w3.org/2000/svg" xmlns:xlink="http://www.w3.org/1999/xlink" x="0px" y="0px"
	 viewBox="0 0 23.2 23.2" style="enable-background:new 0 0 23.2 23.2;" xml:space="preserve">
<style type="text/css">
	.st0{fill-rule:evenodd;clip-rule:evenodd;fill:#FFFFFF;}
</style>
<path class="st0" d="M22.9,11.6c0-6.3-5.1-11.3-11.3-11.3C5.3,0.3,0.3,5.4,0.3,11.6C0.3,17.9,5.3,23,11.6,23l0.1,0v-8.8H9.5v-2.2
	h2.2v-1.6c0-0.8,0.1-1.5,0.4-2.1c0.3-0.6,0.7-1.1,1.2-1.4c0.5-0.3,1.2-0.5,2-0.5c0.3,0,0.5,0,0.8,0c0.3,0,0.5,0.1,0.8,0.1
	c0.2,0,0.5,0.1,0.7,0.1L17.2,9C17.2,9,17,8.9,16.9,8.8c-0.1-0.1-0.3-0.1-0.4-0.2c-0.2,0-0.3-0.1-0.6-0.1c-0.3,0-0.6,0.1-0.8,0.3
	C15,9,14.8,9.3,14.8,9.5c-0.1,0.3-0.1,0.6-0.1,0.9v1.5h2.6v2.2h-2.6v8.4C19.4,21.2,22.9,16.8,22.9,11.6"/>
</svg>
