<?xml version="1.0" encoding="utf-8"?>
<!-- Generator: Adobe Illustrator 19.2.1, SVG Export Plug-In . SVG Version: 6.00 Build 0)  -->
<svg version="1.1" id="Ebene_1" xmlns="http://www.w3.org/2000/svg" xmlns:xlink="http://www.w3.org/1999/xlink" x="0px" y="0px"
	 viewBox="0 0 23.2 23.2" style="enable-background:new 0 0 23.2 23.2;" xml:space="preserve">
<style type="text/css">
	.st0{fill-rule:evenodd;clip-rule:evenodd;fill:#FFFFFF;}
</style>
<path class="st0" d="M11.7,9.5c-1.2,0-2.2,1-2.2,2.2c0,1.2,1,2.2,2.2,2.2c1.2,0,2.2-1,2.2-2.2C13.8,10.5,12.9,9.5,11.7,9.5
	 M15.8,10.9h-0.9c0.1,0.3,0.1,0.6,0.1,1c0,1.8-1.5,3.3-3.3,3.3c-1.8,0-3.3-1.5-3.3-3.3c0-0.3,0-0.7,0.1-1h-1v4.7
	c0,0.2,0.2,0.4,0.4,0.4h7.5c0.2,0,0.4-0.2,0.4-0.4V10.9z M14.1,7.4c-0.3,0-0.5,0.2-0.5,0.5v1.2c0,0.3,0.2,0.5,0.5,0.5h1.2
	c0.3,0,0.5-0.2,0.5-0.5V7.9c0-0.3-0.2-0.5-0.5-0.5H14.1z M7.7,6.2h8c0.8,0,1.4,0.6,1.4,1.4v8.2c0,0.8-0.6,1.4-1.4,1.4h-8
	c-0.8,0-1.4-0.6-1.4-1.4V7.6C6.3,6.7,6.9,6.2,7.7,6.2z M23,11.7c0-6.3-5.1-11.3-11.3-11.3C5.4,0.3,0.3,5.4,0.3,11.7
	C0.3,17.9,5.4,23,11.7,23C17.9,23,23,17.9,23,11.7z"/>
</svg>
