<?xml version="1.0" encoding="utf-8"?>
<!-- Generator: Adobe Illustrator 19.2.1, SVG Export Plug-In . SVG Version: 6.00 Build 0)  -->
<svg version="1.1" id="Ebene_1" xmlns="http://www.w3.org/2000/svg" xmlns:xlink="http://www.w3.org/1999/xlink" x="0px" y="0px"
	 viewBox="0 0 23.2 23.2" style="enable-background:new 0 0 23.2 23.2;" xml:space="preserve">
<style type="text/css">
	.st0{fill-rule:evenodd;clip-rule:evenodd;fill:#FFFFFF;}
</style>
<path class="st0" d="M17.2,8.4c-0.4,0.2-0.8,0.3-1.3,0.4c0.5-0.3,0.8-0.7,1-1.3C16.5,7.7,16,7.9,15.5,8c-0.4-0.4-1-0.7-1.6-0.7
	c-1.2,0-2.2,1-2.2,2.3c0,0.2,0,0.4,0.1,0.5c-1.8-0.1-3.5-1-4.5-2.4C7,8.1,6.9,8.5,6.9,8.9c0,0.8,0.4,1.5,1,1.9c-0.4,0-0.7-0.1-1-0.3
	v0c0,1.1,0.8,2,1.8,2.2c-0.2,0.1-0.4,0.1-0.6,0.1c-0.1,0-0.3,0-0.4,0c0.3,0.9,1.1,1.6,2.1,1.6C9,15,8,15.3,7,15.3
	c-0.2,0-0.4,0-0.5,0c1,0.6,2.1,1,3.4,1c4.1,0,6.3-3.5,6.3-6.5l0-0.3C16.5,9.2,16.9,8.8,17.2,8.4 M23,11.6c0-6.3-5.1-11.3-11.3-11.3
	C5.4,0.3,0.3,5.4,0.3,11.6C0.3,17.9,5.4,23,11.6,23C17.9,23,23,17.9,23,11.6z"/>
</svg>
