<?xml version="1.0" encoding="utf-8"?>
<!-- Generator: Adobe Illustrator 19.2.1, SVG Export Plug-In . SVG Version: 6.00 Build 0)  -->
<svg version="1.1" id="Ebene_1" xmlns="http://www.w3.org/2000/svg" xmlns:xlink="http://www.w3.org/1999/xlink" x="0px" y="0px"
	 viewBox="0 0 23.2 23.2" style="enable-background:new 0 0 23.2 23.2;" xml:space="preserve">
<style type="text/css">
	.st0{fill-rule:evenodd;clip-rule:evenodd;fill:#FFFFFF;}
</style>
<path class="st0" d="M10.4,12.9v-2.5c0-0.1,0.1-0.3,0.2-0.3c0.1-0.1,0.2-0.1,0.4,0l2.3,1.3c0.1,0.1,0.2,0.2,0.2,0.3
	c0,0.1-0.1,0.3-0.2,0.3l-2.3,1.3c-0.1,0-0.1,0-0.2,0c-0.1,0-0.1,0-0.2-0.1C10.4,13.2,10.4,13,10.4,12.9 M14.2,7.6H9.1
	c-1.5,0-2.2,0.2-2.6,0.7c-0.4,0.5-0.4,1.3-0.4,2.3v2c0,2,0.5,3.1,3,3.1h5.2c1.2,0,1.9-0.2,2.4-0.6c0.5-0.4,0.6-1.2,0.6-2.4v-2
	c0-1.1,0-1.9-0.4-2.4C16.4,7.8,15.7,7.6,14.2,7.6z M23,11.6c0-6.3-5.1-11.3-11.3-11.3C5.4,0.3,0.3,5.4,0.3,11.6
	C0.3,17.9,5.4,23,11.6,23C17.9,23,23,17.9,23,11.6z"/>
</svg>
