<svg id="Ebene_1" data-name="Ebene 1" xmlns="http://www.w3.org/2000/svg" width="100.60844mm" height="9.23004mm" viewBox="0 0 285.18927 26.16388">
  <defs>
    <style>
      .cls-1, .cls-2 {
        fill: #3e3e40;
      }

      .cls-1 {
        fill-rule: evenodd;
      }
    </style>
  </defs>
  <title>Berge_Footer</title>
  <g>
    <polygon class="cls-1" points="6.999 19.164 0 26.164 4.82 26.164 9.412 21.577 6.999 19.164"/>
    <polygon class="cls-1" points="5.806 26.146 16.23 26.146 11.018 20.934 5.806 26.146"/>
    <polygon class="cls-1" points="76.133 25.999 75.975 26.157 76.29 26.157 85.095 26.157 80.535 21.597 76.133 25.999"/>
    <polygon class="cls-1" points="32.819 13.566 34.253 14.993 37.65 11.505 33.152 7.006 28.257 11.902 31.37 15.015 32.819 13.566"/>
    <polygon class="cls-1" points="23.633 8.321 11.545 20.406 17.257 26.144 20.322 26.144 30.876 15.564 23.633 8.321"/>
    <polygon class="cls-1" points="66.144 14.993 67.16 16.009 69.699 13.47 64.91 8.681 62.371 11.22 66.144 14.993 66.144 14.993"/>
    <polygon class="cls-1" points="21.272 26.144 44.367 26.144 32.819 14.596 21.272 26.144"/>
    <polygon class="cls-1" points="76.109 25 80.03 21.079 71.505 12.554 67.595 16.464 76.109 25"/>
    <polygon class="cls-1" points="50.146 0 34.713 15.434 45.394 26.144 55.048 26.144 65.674 15.528 50.146 0"/>
    <polygon class="cls-1" points="66.144 15.997 55.997 26.144 56.112 26.144 74.94 26.144 75.615 25.469 66.201 16.055 66.144 15.997"/>
    <polygon class="cls-1" points="199.999 19.164 194.118 25.046 193.483 24.411 191.793 26.101 191.732 26.161 191.853 26.161 193.003 26.161 193 26.164 197.82 26.164 202.412 21.577 199.999 19.164"/>
    <polygon class="cls-1" points="198.806 26.146 209.23 26.146 204.018 20.934 198.806 26.146"/>
    <polygon class="cls-1" points="277.583 18.54 274.542 21.581 279.082 26.144 285.189 26.144 277.583 18.54"/>
    <polygon class="cls-1" points="269.133 25.999 268.975 26.157 269.29 26.157 278.095 26.157 273.535 21.597 269.133 25.999"/>
    <polygon class="cls-1" points="225.819 13.566 227.253 14.993 230.65 11.505 226.152 7.006 221.257 11.902 224.37 15.015 225.819 13.566"/>
    <polygon class="cls-1" points="216.633 8.321 204.545 20.406 210.257 26.144 213.322 26.144 223.876 15.564 216.633 8.321"/>
    <polygon class="cls-1" points="259.144 14.993 260.16 16.009 262.699 13.47 257.91 8.681 255.371 11.22 259.144 14.993 259.144 14.993"/>
    <polygon class="cls-1" points="214.272 26.144 237.367 26.144 225.819 14.596 214.272 26.144"/>
    <polygon class="cls-1" points="269.109 25 273.03 21.079 264.505 12.554 260.595 16.464 269.109 25"/>
    <polygon class="cls-1" points="243.146 0 227.713 15.434 238.394 26.144 248.048 26.144 258.674 15.528 243.146 0"/>
    <polygon class="cls-1" points="259.144 15.997 248.997 26.144 249.112 26.144 267.94 26.144 268.615 25.469 259.201 16.055 259.144 15.997"/>
    <polygon class="cls-1" points="165.491 25.465 163.264 23.238 162.096 24.405 163.839 26.156 164.8 26.156 164.799 26.157 168.8 26.157 166.8 24.156 165.491 25.465"/>
    <polygon class="cls-1" points="175.168 21.328 175.718 21.876 177.022 20.537 175.295 18.811 173.417 20.69 174.611 21.885 175.168 21.328"/>
    <polygon class="cls-1" points="171.642 19.315 167.002 23.954 169.194 26.156 170.371 26.156 174.422 22.095 171.642 19.315"/>
    <polygon class="cls-1" points="187.959 21.876 188.349 22.266 189.323 21.292 187.485 19.453 186.511 20.428 187.959 21.876 187.959 21.876"/>
    <polygon class="cls-1" points="170.735 26.156 179.6 26.156 175.168 21.724 170.735 26.156"/>
    <rect class="cls-2" x="191.6491" y="22.68949" width="2.12553" height="4.62785" transform="translate(36.95318 141.91524) rotate(-45)"/>
    <polygon class="cls-1" points="181.818 16.121 175.894 22.045 179.994 26.156 183.7 26.156 187.778 22.081 181.818 16.121"/>
    <polygon class="cls-1" points="187.959 22.262 184.064 26.156 184.108 26.156 191.335 26.156 191.594 25.897 187.981 22.284 187.959 22.262"/>
    <polygon class="cls-1" points="93.39 22.661 91.048 25.003 84.583 18.54 81.542 21.581 86.082 26.144 89.908 26.144 89.888 26.164 92.3 26.164 94.598 23.869 93.39 22.661"/>
    <polygon class="cls-1" points="92.793 26.155 98.009 26.155 95.401 23.547 92.793 26.155"/>
    <polygon class="cls-1" points="106.31 19.86 107.027 20.574 108.728 18.829 106.477 16.578 104.027 19.027 105.585 20.585 106.31 19.86"/>
    <polygon class="cls-1" points="101.714 17.236 95.665 23.283 98.523 26.154 100.057 26.154 105.338 20.86 101.714 17.236"/>
    <polygon class="cls-1" points="122.985 20.574 123.494 21.083 124.764 19.812 122.368 17.416 121.097 18.686 122.985 20.574 122.985 20.574"/>
    <polygon class="cls-1" points="100.532 26.154 112.088 26.154 106.31 20.376 100.532 26.154"/>
    <polygon class="cls-1" points="127.971 25.582 129.934 23.62 125.668 19.354 123.711 21.31 127.971 25.582"/>
    <polygon class="cls-1" points="114.98 13.072 107.258 20.795 112.602 26.154 117.433 26.154 122.75 20.842 114.98 13.072"/>
    <polygon class="cls-1" points="122.985 21.077 117.908 26.154 117.965 26.154 127.387 26.154 127.724 25.816 123.014 21.105 122.985 21.077"/>
    <polygon class="cls-1" points="133.484 23.477 131.635 25.327 130.186 23.879 127.983 26.081 127.905 26.16 128.062 26.16 130.801 26.16 130.798 26.164 132.648 26.164 134.41 24.403 133.484 23.477"/>
    <polygon class="cls-1" points="133.026 26.157 137.027 26.157 135.027 24.156 133.026 26.157"/>
    <polygon class="cls-1" points="160.02 26.101 159.96 26.161 160.08 26.161 163.46 26.161 161.71 24.411 160.02 26.101"/>
    <polygon class="cls-1" points="143.395 21.328 143.945 21.876 145.249 20.537 143.523 18.811 141.644 20.69 142.839 21.885 143.395 21.328"/>
    <polygon class="cls-1" points="139.869 19.315 135.229 23.954 137.422 26.156 138.598 26.156 142.649 22.095 139.869 19.315"/>
    <polygon class="cls-1" points="156.186 21.876 156.576 22.266 157.551 21.292 155.712 19.453 154.738 20.428 156.186 21.876 156.186 21.876"/>
    <polygon class="cls-1" points="138.962 26.156 147.827 26.156 143.395 21.724 138.962 26.156"/>
    <rect class="cls-2" x="159.87631" y="22.6895" width="2.12555" height="4.62783" transform="translate(27.6452 119.44582) rotate(-44.99884)"/>
    <polygon class="cls-1" points="150.045 16.121 144.122 22.045 148.221 26.156 151.927 26.156 156.006 22.081 150.045 16.121"/>
    <polygon class="cls-1" points="156.186 22.262 152.291 26.156 152.335 26.156 159.562 26.156 159.821 25.897 156.208 22.284 156.186 22.262"/>
  </g>
</svg>
