<?xml version="1.0" encoding="utf-8"?>
<!-- Generator: Adobe Illustrator 19.2.1, SVG Export Plug-In . SVG Version: 6.00 Build 0)  -->
<svg version="1.1" id="Ebene_1" xmlns="http://www.w3.org/2000/svg" xmlns:xlink="http://www.w3.org/1999/xlink" x="0px" y="0px"
	 viewBox="0 0 377.3 54" style="enable-background:new 0 0 377.3 54;" xml:space="preserve">
<style type="text/css">
	.st0{fill:#FFFFFF;}
</style>
<g>
	<path class="st0" d="M6.2,11.7c0-0.7,0-1.3,0-1.9h0.9l0.1,1h0C7.6,10,8.3,9.6,9.3,9.6c1.4,0,2.5,1.2,2.5,3c0,2.1-1.3,3.1-2.6,3.1
		c-0.8,0-1.4-0.3-1.8-0.9h0v3.2H6.2V11.7z M7.3,13.2c0,0.1,0,0.3,0,0.4c0.2,0.7,0.8,1.2,1.6,1.2c1.1,0,1.8-0.9,1.8-2.2
		c0-1.2-0.6-2.2-1.7-2.2c-0.7,0-1.4,0.5-1.6,1.3c0,0.1-0.1,0.3-0.1,0.4V13.2z"/>
	<path class="st0" d="M13.1,11.6c0-0.7,0-1.3,0-1.8h0.9l0,1.1h0c0.3-0.8,0.9-1.3,1.6-1.3c0.1,0,0.2,0,0.3,0v1c-0.1,0-0.2,0-0.4,0
		c-0.7,0-1.3,0.6-1.4,1.3c0,0.2,0,0.3,0,0.5v3.1h-1.1V11.6z"/>
	<path class="st0" d="M17.5,12.9c0,1.4,0.9,2,2,2c0.8,0,1.2-0.1,1.6-0.3l0.2,0.8c-0.4,0.2-1,0.4-1.9,0.4c-1.8,0-2.9-1.2-2.9-2.9
		c0-1.8,1-3.1,2.7-3.1c1.9,0,2.4,1.7,2.4,2.7c0,0.2,0,0.4,0,0.5H17.5z M20.6,12.1c0-0.7-0.3-1.7-1.5-1.7c-1.1,0-1.5,1-1.6,1.7H20.6z
		"/>
	<path class="st0" d="M22.7,14.5c0.3,0.2,0.9,0.4,1.4,0.4c0.8,0,1.1-0.4,1.1-0.9c0-0.5-0.3-0.8-1.1-1.1c-1.1-0.4-1.5-1-1.5-1.6
		c0-0.9,0.8-1.7,2-1.7c0.6,0,1.1,0.2,1.4,0.4l-0.3,0.8c-0.2-0.1-0.6-0.3-1.2-0.3c-0.6,0-1,0.4-1,0.8c0,0.5,0.3,0.7,1.1,1
		c1,0.4,1.5,0.9,1.5,1.7c0,1-0.8,1.8-2.2,1.8c-0.6,0-1.2-0.2-1.6-0.4L22.7,14.5z"/>
	<path class="st0" d="M28.2,12.9c0,1.4,0.9,2,2,2c0.8,0,1.2-0.1,1.6-0.3l0.2,0.8c-0.4,0.2-1,0.4-1.9,0.4c-1.8,0-2.9-1.2-2.9-2.9
		c0-1.8,1-3.1,2.7-3.1c1.9,0,2.4,1.7,2.4,2.7c0,0.2,0,0.4,0,0.5H28.2z M31.3,12.1c0-0.7-0.3-1.7-1.5-1.7c-1.1,0-1.5,1-1.6,1.7H31.3z
		"/>
	<path class="st0" d="M33.7,11.3c0-0.6,0-1.1,0-1.6h0.9l0.1,0.9h0c0.3-0.5,1-1.1,1.9-1.1c0.8,0,2.1,0.5,2.1,2.5v3.5h-1.1v-3.3
		c0-0.9-0.3-1.7-1.3-1.7c-0.7,0-1.2,0.5-1.4,1.1c0,0.1-0.1,0.3-0.1,0.5v3.5h-1.1V11.3z"/>
	<path class="st0" d="M41.5,8.4v1.4H43v0.8h-1.5v3.1c0,0.7,0.2,1.1,0.8,1.1c0.3,0,0.5,0,0.6-0.1l0,0.8c-0.2,0.1-0.5,0.1-0.9,0.1
		c-0.5,0-0.9-0.2-1.1-0.4c-0.3-0.3-0.4-0.8-0.4-1.5v-3.2h-0.9V9.8h0.9V8.7L41.5,8.4z"/>
	<path class="st0" d="M44.8,12.9c0,1.4,0.9,2,2,2c0.8,0,1.2-0.1,1.6-0.3l0.2,0.8c-0.4,0.2-1,0.4-1.9,0.4c-1.8,0-2.9-1.2-2.9-2.9
		c0-1.8,1-3.1,2.7-3.1c1.9,0,2.4,1.7,2.4,2.7c0,0.2,0,0.4,0,0.5H44.8z M47.8,12.1c0-0.7-0.3-1.7-1.5-1.7c-1.1,0-1.5,1-1.6,1.7H47.8z
		"/>
	<path class="st0" d="M55.2,7v7c0,0.5,0,1.1,0,1.5h-0.9l0-1h0c-0.3,0.6-1,1.1-2,1.1c-1.4,0-2.5-1.2-2.5-3c0-1.9,1.2-3.1,2.6-3.1
		c0.9,0,1.5,0.4,1.8,0.9h0V7H55.2z M54.1,12.1c0-0.1,0-0.3,0-0.5c-0.2-0.7-0.7-1.2-1.5-1.2c-1.1,0-1.7,1-1.7,2.2
		c0,1.2,0.6,2.2,1.7,2.2c0.7,0,1.4-0.5,1.5-1.3c0-0.1,0-0.3,0-0.4V12.1z"/>
	<path class="st0" d="M59.5,7h1.1v3.6h0c0.4-0.6,1-1.1,2-1.1c1.4,0,2.4,1.2,2.4,3c0,2.1-1.3,3.1-2.6,3.1c-0.8,0-1.5-0.3-1.9-1.1h0
		l-0.1,1h-0.9c0-0.4,0-1,0-1.5V7z M60.5,13.2c0,0.1,0,0.3,0,0.4c0.2,0.7,0.8,1.2,1.6,1.2c1.1,0,1.8-0.9,1.8-2.2
		c0-1.2-0.6-2.2-1.7-2.2c-0.7,0-1.4,0.5-1.6,1.3c0,0.1-0.1,0.3-0.1,0.4V13.2z"/>
	<path class="st0" d="M66.6,9.8l1.3,3.4c0.1,0.4,0.3,0.8,0.4,1.2h0c0.1-0.3,0.2-0.8,0.4-1.2l1.2-3.4h1.1l-1.6,4.1
		c-0.8,2-1.3,3-2,3.6c-0.5,0.4-1,0.6-1.3,0.7l-0.3-0.9c0.3-0.1,0.6-0.3,0.9-0.5c0.3-0.2,0.6-0.6,0.9-1.2c0-0.1,0.1-0.2,0.1-0.3
		c0-0.1,0-0.1-0.1-0.3l-2.1-5.3H66.6z"/>
</g>
<g>
	<path class="st0" d="M8.1,25.7c0.4,0,1.4,0.5,2.8,1.4c10.2,6,15.8,9.3,16.7,9.9c1.2,1.2,1.8,2.6,1.8,4.4v0.6c0,2.1-1,3.9-3.1,5.4
		c-1.1,0.7-2.3,1.1-3.4,1.1h-15c-0.7,0-1.3-0.5-1.7-1.6v-0.5c0-0.5,0.5-1.5,1.6-2.9c2-3.2,3.1-4.9,3.5-5.3c0.4-0.3,0.8-0.4,1.2-0.4
		c0.9,0,1.6,0.5,2,1.5l0,0.5c0,0.5-0.5,1.4-1.5,2.8l-1.2,1.9h10.9c1.2,0,2.1-0.7,2.6-2.2l0-0.4v-0.4c0-0.8-0.2-1.3-0.5-1.6
		C15,34.2,8.9,30.6,6.5,29.1C6.2,28.6,6,28.2,6,27.8v-0.3c0-0.9,0.5-1.5,1.6-1.8H8.1z"/>
	<path class="st0" d="M37,25.2h0.6c2.6,0,4.4,1.2,5.5,3.6c6.8,11.3,10.2,17,10.2,17.2l0,0.4v0.3c0,0.9-0.5,1.5-1.6,1.8h-0.5
		c-0.8,0-1.5-0.6-2.1-1.8l-3.8-6.4c-7.8,5.1-11.8,7.7-12.2,7.9l-0.6,0.1h-0.2c-0.9,0-1.5-0.5-1.9-1.6V31.7c0-2.1,1-3.9,3.1-5.4
		C34.7,25.6,35.9,25.2,37,25.2z M34.5,31.8v10.9l8.9-5.8c-2.8-4.8-4.3-7.3-4.5-7.5c-0.3-0.2-0.8-0.3-1.3-0.3h-0.4
		c-1.2,0-2.1,0.7-2.6,2.2L34.5,31.8z"/>
	<path class="st0" d="M71.3,25.2c2.1,0,3.9,1,5.4,3.1c0.7,1.1,1.1,2.3,1.1,3.4v0.6c0,2.6-1.2,4.4-3.6,5.5l-4.5,2.8
		c4,2.9,6.1,4.5,6.3,4.8c0.3,0.4,0.4,0.8,0.4,1.2c0,1-0.5,1.6-1.6,2h-0.5c-0.5,0-1.2-0.4-2.3-1.3l-7.3-5.4c-0.4-0.4-0.5-0.9-0.5-1.4
		c0-0.9,0.7-1.6,2-2.3l7.3-4.6c0.2-0.4,0.3-0.9,0.3-1.4v-0.4c0-1.2-0.7-2-2.1-2.6l-0.5,0H58.5v16.7c0,1.3-0.5,2.1-1.4,2.4l-0.5,0
		h-0.2c-0.9,0-1.5-0.5-1.9-1.6V26.9c0-0.7,0.5-1.3,1.5-1.7H71.3z"/>
	<path class="st0" d="M81.2,25.2c0.7,0,1.3,0.5,1.7,1.4c0.1,0.3,0.1,0.6,0.1,1.1v10.8h6.9c0.1,0,2-1.1,5.6-3.4
		c1.5-0.8,2.3-1.4,2.4-1.6c0.1-0.3,0.3-1,0.4-2.3c0.4-0.8,1.1-1.2,1.9-1.2c0.9,0,1.6,0.5,2,1.5v0.8c0,2.5-1.1,4.3-3.4,5.4
		c-4.5,2.8-7.1,4.4-7.6,4.7l-0.6,0.1h-7.6v3.4c0,1.3-0.5,2.1-1.4,2.4l-0.5,0h-0.2c-0.9,0-1.5-0.5-1.9-1.6V26.9
		c0-0.7,0.5-1.3,1.5-1.7H81.2z M94.1,41.1c0.6,0,1.5,0.6,2.8,1.7c2,1.4,3.1,2.3,3.4,2.6c0.3,0.4,0.4,0.8,0.4,1.2c0,1-0.5,1.6-1.6,2
		h-0.5c-0.5,0-1.2-0.4-2.3-1.3c-2.2-1.6-3.5-2.6-3.9-3c-0.2-0.3-0.3-0.7-0.3-1.2c0-0.8,0.5-1.4,1.6-1.8L94.1,41.1z"/>
	<path class="st0" d="M118.4,25.4h0.6c2.2,0,4,1.1,5.6,3.3c0.6,1.2,0.9,2.2,0.9,3.1v14.8c0,0.9-0.5,1.5-1.6,1.8l-0.5,0h-19.2
		c-0.9,0-1.5-0.6-1.8-1.7v-0.4c0-0.4,0.4-1.3,1.3-2.6c6.5-10.7,10-16.3,10.4-16.8C115.3,25.9,116.7,25.4,118.4,25.4z M107.9,44.5
		L107.9,44.5l13.6,0v-12c0-1.6-0.6-2.6-1.9-3.1c-0.3-0.1-0.6-0.1-0.8-0.1h-0.4c-1,0-1.6,0.3-1.8,1L107.9,44.5z"/>
</g>
<g>
	<path class="st0" d="M158.3,26.5h0.2H158.3h0.2c0.2,0.1,0.3,0.1,0.5,0c0.1,0.7,0.5,1.1,1.2,1c-0.6,0.3-0.5,0.6,0.2,0.7
		c0.4,0.3,0.8,0.4,1.2,0.5l0.2,0.1c0-0.4,0.2-1,0.4-1.6c0-0.1,0-0.1-0.1-0.2l0.2-0.2c0,0.8-0.1,1.9-0.4,3.3v0.4l-0.1,0.3v0.4
		c-0.2,0.5-0.3,1.2-0.3,2l-0.2,0.7l-0.1,0.2v0.5l-0.3,1.3c0,0.4-0.1,0.9-0.3,1.5l-0.2,1.2v0.3l-0.4,1.8l-0.1,0.6l-0.1,0.7
		c0,0.2,0,0.4-0.1,0.7v0.3l-0.1,0.6l-0.1,0.3V44l-0.1,0.3l-0.1,0.6v0.3c0-0.4-0.2-0.9-0.5-1.3l0.3-0.1c0.1-0.2,0.1-0.5,0-0.8
		c0.4-0.5,0.5-1,0.1-1.6c0.3-0.4,0.3-0.7,0-1l-0.2-0.1c-0.3-0.4-0.8-0.6-1.3-0.6l0.1,0.3c-0.7,0.3-0.8,0.8-0.4,1.3
		c0.1-0.1,0.3-0.1,0.4-0.1c0.4,0.1,0.3,0.2-0.1,0.3l0.4,0.5l-0.4-0.3l0.1,0.5c-0.2-0.2-0.4-0.2-0.6,0l0.2,0.3
		c-0.3,0.1-0.4,0.3-0.3,0.6c-0.2,0.1-0.4,0.3-0.6,0.6c-0.3,0.1-0.5,0.3-0.8,0.6c-0.1,0-0.3,0.1-0.5,0.2c-0.6-0.2-1.3-0.1-2.1,0.3
		c-0.6-0.2-1.3-0.1-2.1,0.1l-0.3-0.2l-0.5,0.2c0.1-0.1,0.1-0.2,0-0.3l-0.1,0.2c-0.1-0.2-0.3-0.3-0.6-0.2l-0.5-0.5l-0.2-0.1
		c-0.2-0.5-0.3-1.1-0.3-1.8l-0.1-0.4c0-0.1,0-0.2-0.1-0.3c0-0.5,0-1-0.2-1.6v-0.3c0-0.4,0-0.8-0.2-1.3v-1.5l-0.1-0.2v-1.2l-0.1-0.4
		l-0.3-4.5l-0.1-0.4v-1c0-0.1,0-0.2,0-0.3l0.1-0.4v-0.4c0.7,0,1-0.1,1-0.5c0.1,0.1,0.2,0.1,0.4,0l0.2,0.3l0.1-0.3
		c0.5,0.1,1,0,1.6-0.2c0.2,0.1,0.4,0.1,0.6,0l0.3,0.1l0.3-0.1c0.3,0.2,0.7,0.3,1,0.3c-0.1-0.2-0.1-0.3,0.1-0.5
		c0.4,0.3,0.8,0.2,1.1-0.4c0,0.2,0.1,0.4,0.3,0.6l0.2-0.3c0.4,0.3,0.8,0.4,1.4,0.3h0.8l0.2,0.1c0.1-0.2,0.3-0.2,0.5-0.1
		C157.9,27,158,26.7,158.3,26.5z M158.1,28.7c-0.5,0.1-1.1,0.2-1.9,0.2l-0.9,0.1h-0.5l-0.3,0.1h-0.6h-0.3l-1.6,0.1l-1.5,0.1
		c-0.4,0.1-1,0.1-1.7,0.2l-0.2,0.1c0,0.4,0,0.8,0.2,1.3v0.3v0.4l0.2,1.6c0,0.1,0,0.2,0.1,0.3v0.4v0.4l0.2,1v1l0.1,0.7
		c0,0.4,0.1,1,0.2,1.7v0.7v0.4v0.3l0.1,0.3v0.7v0.3c-0.1,0.5,0,1,0.2,1.5v0.3c0.4-0.3,0.9-0.6,1.5-0.8c0.1,0,0.3-0.1,0.4-0.2
		c1.2,0.2,2.2,0,3.1-0.9c0-0.5-0.1-0.9-0.3-1.3l-0.1-0.6l0.1-0.3l-0.2-0.2l0.6-1c1-0.4,2-0.5,3.3-0.5L159,37
		c0.2-0.2,0.4-0.4,0.4-0.7l0.4-0.4c0-0.5-0.2-1.1-0.4-1.9c-0.6-0.1-1.3,0-2.1,0.2h-0.7h-0.3h-0.3l-0.3,0.1h-0.3h-0.5
		c-0.2-0.5-0.5-0.9-0.9-1.2c-0.1-0.7,0.3-1.2,1-1.7c0.5-0.1,1.2-0.1,2.1,0l0.9-0.2h0.4h0.4l0.8-0.7c0-0.5-0.1-1.1-0.3-1.8h-1.1
		H158.1z M150.7,26.2c0.1,0.2,0.3,0.3,0.6,0.3C150.7,26.9,150.5,26.8,150.7,26.2z M151.8,25.3l0.3,0.3
		C151.4,25.6,151.3,25.5,151.8,25.3z"/>
	<path class="st0" d="M164.1,26.1L166,26l0.7-0.1l0.4-0.1l0.3,0.1l0.3,0l0.3-0.1l0.4,0l0.6,0l0.4,0l0.4-0.1l1.5,0l0.3,2.1l0,0.3
		l0,0.4l0.1,0.3l0.1,0.5l0.1,0.3l0,0.3l0.1,0.5l0.2,1.5l0.1,0.6l0.1,0.5c0,0.1,0,0.2,0,0.4l0.2,0.5l0.1,0.4c0.2,0.5,0.3,1.2,0.3,2
		l0.1,0.3l0.2,0.6l0.1,0.6c0.1,0.4-0.1,0.5-0.5,0.5L172,39c-0.9-0.6-1.9-0.4-2.9,0.5c-0.1-0.6-0.2-1.5-0.2-2.5l-0.5-3.8
		c0-0.6,0-1.4-0.2-2.4c0-0.3,0-0.6,0.2-1l-0.1-1c-0.8-0.7-1.8-1-3.1-1c-1.3-0.1-1.7,0.6-1.3,2l-0.6,0.3l-0.3-2
		C163.9,27.8,164.2,27.1,164.1,26.1z M164.2,32.6c0.2,0.4,0.2,0.9,0.2,1.5C163.8,33.8,163.7,33.3,164.2,32.6z M164.4,35.8
		c0.4,1,0.6,2.2,0.7,3.7v0.7l0.2,1.5l-0.1,0.2l0.5,1.8c0.3,0.3,0.8,0.5,1.3,0.7c-0.1,0.2-0.3,0.4-0.6,0.6l-0.5,0.1
		c0-0.4-0.2-0.8-0.4-1.2l-1.2-7.8L164.4,35.8z M164.8,28.4c1,0,2,0.2,2.9,0.8c0,0.3-0.1,0.6-0.3,1l0.3,2.1l0,0.3l0,0.4
		c0.1,0.3,0.1,0.6,0,1.1l0.1,0.9l0,0.4l0.1,0.5l0,0.4l0.1,0.5c0.1,0.4,0.1,0.9,0.1,1.5l0.2,1.7l0,0.3c0.7-0.2,1.3-0.6,2-1.2l0.4-0.1
		c0.3,0.2,0.8,0.5,1.4,0.9l0.6,0.6c0,0.3-0.1,0.6-0.3,1l-0.1,0.2c-1.4,0.2-2.5,0.9-3.4,2.2c-1.1,0.1-2.1-0.2-3.2-0.9
		c-0.1-0.3-0.1-0.7-0.1-1.3l-0.5-3.8l0-0.3c0-0.1,0-0.2,0-0.4l-0.3-2.4c-0.1-0.7-0.2-1.6-0.2-2.7l-0.3-2.6c0-0.2-0.2-0.4-0.3-0.6
		C164.4,28.9,164.6,28.7,164.8,28.4z M165.7,47.7l-0.1-0.5l2.6-0.5l0.9-0.1l1.4-0.2l0.5-0.1c0.3,0,0.6-0.1,0.9-0.3l1-0.1l2.2-0.3
		l0.5-0.1l0.5-0.1l0.1,0.4c-0.6,0.1-1.6,0.1-3,0.1l-0.4,0.2l-4.2,0.9l-0.7-0.1L165.7,47.7z M166.6,45.5c0.3,0.1,0.3,0.2-0.1,0.2
		L166.6,45.5z M172.1,42.5c0.1,0,0.2,0,0.4,0c-0.1,0.9,0.3,1.7,1,2.4l-3.3,0.4l-0.3,0l-0.3,0c-0.2,0-0.5,0.1-0.9,0.1l-0.4,0l-0.4,0
		l-0.4,0.1c-0.2-0.3-0.3-0.6-0.2-1.1c0.6,0.1,1.4,0.1,2.3,0c0.2-0.2,0.4-0.4,0.5-0.7C170.6,43.6,171.3,43.2,172.1,42.5z M172.8,24.8
		l1,5l0.1,0.7l0.1,0.9l0.3,2.5l0.1,0.9c0.1,0.5,0.2,1,0.4,1.6l0.2,1.8l0.5,3.9l0.1,0.9l0.1,0.9l0.4,1.3c-0.7-1.8-1.1-4-1.2-6.6
		l-0.3-0.7l-0.9-6.9l-0.1-0.9L172.8,24.8z"/>
	<path class="st0" d="M181.5,22.7h3.1h0.5h0.6h0.5h0.8h0.5h0.6c0.1,0.7,0.2,1.5,0.2,2.5v1.2v0.5v0.5c0.1,0.5,0.1,1.1,0,1.9l0.2,0.3
		c0,0.4-0.1,0.8-0.2,1.2v0.5c0.4,1.1,0.5,2.5,0.5,4v0.9V37v0.9v0.9l-0.8,2.2l-0.5,1.1c-0.1,0.3-0.2,0.7-0.5,1.2l-0.2,0.5l-0.1,0.5
		l-0.6,2l-0.3,0.3c0.4-1.6,0.2-1.8-0.6-0.6c-0.1,0.3-0.1,0.6,0,0.9c-0.8,0.1-1.8,0.4-3,0.8l-0.6,0.1c-0.2,0-0.3,0-0.5,0.2h-0.5
		l-0.5,0.2l-0.5,0.1l-0.5,0.2h-0.6c0-0.5-0.1-1.1-0.3-1.7c0.1-0.4,0-0.8-0.1-1.2l0.1-1.1c0.6,0.5,1.5,0.8,2.5,1.1
		c3.6,0.5,5.6-0.4,6.2-2.8l-2.6,1.6c-2.4,0.6-4.6-0.1-6.6-2l-0.1-2.3c-0.2-0.7-0.2-1.5-0.2-2.3c-0.2-0.7-0.2-1.6-0.2-2.6l-0.1-0.6
		v-1.7l-0.2-0.6v-1.1c3-4.3,6.6-4.2,10.8,0.2v-2.3c0.1-0.7,0.1-1.6,0-2.6v-2.3h-0.1h0.1h-0.1c-0.9,0.5-1.2,2.2-1.1,5
		c-0.5-0.5-1.1-1-1.8-1.4c-0.9-0.5-1.9-0.8-3.1-0.9c0.5-0.7,1.3-1.3,2.3-2l0.2-0.3c0.1,0,0.2-0.1,0.3-0.3
		C182.9,24.2,181.9,23.9,181.5,22.7z M183.2,30.6c-3.7,0.9-5.2,3.6-4.6,8c0.6,3.7,2.7,4.9,6.3,3.4c1.5-1.2,2.3-3,2.6-5.3
		C187.7,33.5,186.2,31.5,183.2,30.6z M181.7,32.3c2.1,0.3,3.1,2,2.9,5.1c0.7,2.4-0.1,3.6-2.3,3.5c-0.4-0.6-0.7-1.3-0.9-2.2l-0.3-0.1
		c0.1-0.4,0.1-0.8,0.2-1.2C180.6,35.8,180.7,34.1,181.7,32.3z"/>
	<path class="st0" d="M203.9,22.8h0.4H203.9h0.4l0.4,0.7c-0.3,0.9-0.4,2.1-0.4,3.4l-0.2,0.6v1.2l-0.2,0.5l-0.2,0.7v0.5l-0.5,0.2
		l-0.4,2.9l-0.2,1.2c0,0.7-0.1,1.5-0.4,2.3l-0.2,1.2v0.6l-0.2,0.5v0.5l-0.2,0.5l-0.2,0.5v0.7c-0.2,0.8-0.3,1.9-0.4,3.2
		c-0.8,0-1.8,0.1-3,0.4h-0.7l-0.4-0.2l-0.4,0.2h-0.7h-0.5H195h-0.5l-0.7,0.2l-0.5-0.2l-0.9,0.2h-0.5c-0.4-0.1-0.8-0.2-1.4-0.2
		l0.5-0.5l-0.5-0.2c0.2-0.6,0-1.2-0.5-1.6l-0.4-1.4c0.2,0.1,0.4,0.3,0.5,0.5l2.9-0.5h1.4l0.5-0.2c0.1-1.4,0.4-3.2,1.1-5.3
		c1.5-1.2,3.4-1.7,5.5-1.3l0.9-4.1l-0.2-0.4c0.2,0,0.3-0.1,0.4-0.3c-2.3,0.3-4.5,1.2-6.6,2.8c0.1-0.5,0.2-1.1,0.2-1.8
		c-0.8,0.2-1.9,0.2-3.2,0.2l-0.4,0.2H192l-0.5,0.2l-0.2,0.4c-0.2-0.3-0.5-0.4-0.9-0.4c-0.2-1-0.2-2.3,0-3.9v-1.3l0.2-0.4v-1.6
		l0.2-0.5l3.6-0.2c0.2,0,0.3,0,0.5-0.2h0.7h0.5c0.8-0.1,1.8-0.2,3-0.2c0.7-0.2,1.5-0.2,2.5-0.2l0.5-0.2h0.9
		C203.3,23,203.6,22.9,203.9,22.8z M190.4,36.5c0.3,1.5,0.2,3.1-0.4,4.8C189.2,39.8,189.4,38.2,190.4,36.5z M190.7,32h0.7
		C190.8,33.6,190.5,33.6,190.7,32z M193.2,27c-0.2,1.2,0,1.3,0.7,0.4L193.2,27z"/>
	<path class="st0" d="M206.6,22.7c0.1,0.1,0,0.3-0.1,0.5c0.3-0.2,0.4-0.2,0.5,0c0.2-0.1,0.4-0.2,0.5-0.4c0.3,0.1,0.6,0.1,1,0.1
		c0.2,0.1,0.4,0.2,0.6,0.2h0.2c0,0,0.1,0.1,0.1,0.1c0-0.1,0.1-0.1,0.1-0.1c0.2,0.2,0.4,0.2,0.6,0.1c0.1,0,0.2,0.1,0.3,0.1
		c0,0.1,0.1,0.2,0.2,0.3l-0.2-0.3c0.4,0,0.8,0.2,1.1,0.5c0.1,0,0.2-0.1,0.2-0.3l1.2,0.2c0.1,1.1,0,1.6-0.4,1.5
		c0.1,0.2,0.3,0.4,0.5,0.6l-0.1,0.1c0.1,0.5,0,1-0.1,1.6v0.1l0.1,0.2c0,0.1,0,0.1,0,0.2l-0.1,0.2l-0.2,0.2c0.2,0.4,0.2,1,0.2,1.7
		c-0.1,0.4-0.2,1-0.1,1.6c-0.1,0.3-0.1,0.6-0.1,1c0,0.4-0.1,0.8-0.1,1.3v0.4l-0.1,0.5l0.1,0.4c-0.1,0.4-0.2,1-0.1,1.7l-0.1,0.6
		l0.1,0.5c-0.1,0.3-0.1,0.7-0.1,1.2c0,0-0.1,0.1-0.1,0.1l0.1,0.2c-0.1,0.5-0.1,1.1-0.1,1.8l-0.1,0.3v0.2V42l-0.1,0.2
		c0,0.3,0,0.7-0.1,1.1v0.2c0,0.3,0,0.8,0,1.2V45l-0.1,0.4c0,0.3,0,0.7,0,1.1l-0.1,1.9c0,0.2-0.1,0.4-0.1,0.6c-0.4,0-0.8,0-1.4,0
		h-0.3h-0.3L210,49c-0.2,0-0.4,0-0.6-0.1c-0.4,0.1-1,0-1.7-0.1l-0.3,0.2c-0.4-0.1-1-0.2-1.6-0.2l-0.6-0.2c0.1-0.4,0.1-0.8,0-1.2
		c0.1-0.4,0.1-0.8,0.1-1.3v-0.3l0.1-0.9v-0.3v-0.8l0.1-0.4v-0.3v-0.8l0.1-0.3c0-0.1,0-0.4,0-0.6l0.1-0.5l-0.1-0.5l0.1-0.4
		c-0.1-0.3-0.1-0.7,0-1.1l-0.1-1.9c0-0.3,0-0.8,0-1.2v-0.2c-0.1-0.4-0.1-0.8,0-1.3l-0.1-0.5l-0.1-0.2c0-0.3,0.1-0.6,0.2-0.9
		c0-0.1-0.1-0.4-0.1-0.6v-0.5c0.2-0.6,0.3-1.4,0.2-2.2l0.1-0.2l-0.1-0.2c0.1-0.2,0.1-0.5,0.1-0.8l0.1-0.9l0.3-0.2
		c-0.2-0.8-0.2-1.7,0-2.7l-0.1-0.2l0.2-0.1l-0.2-0.3l0.3-0.1c0-0.3,0-0.6,0.2-0.9C206.6,22.9,206.6,22.9,206.6,22.7z M207.7,31.4
		l-0.7,0.1c-0.3,0.7,0.1,1,1,0.9c-0.1,0.3-0.1,0.7,0,1.2c-0.1,0.3-0.2,0.8-0.2,1.3v0.6v0.2c0,0.1,0,0.2,0,0.2l-0.1,0.3v0.4
		c0,0.4-0.1,0.8-0.2,1.3v0.5v0.4v0.3v0.5l-0.1,1v0.5v0.6c-1-0.2-1.5,0.1-1.4,0.7c0.6,0.2,1.4,0.3,2.2,0.2l0.2,0.1c0,0,0.1,0,0.1-0.1
		c0.3,0.1,0.6,0.1,1,0.2c0.1,0,0.2,0,0.2-0.1l1.1,0.2h0.5l0.2-0.1c0.3,0.1,0.6,0.1,0.9,0c0.1-0.7-0.3-1-1.2-0.9l0.1-1v-0.5l0.1-0.2
		v-0.7l0.1-1.4l0.1-0.2v-0.5l0.1-0.2c0-0.3,0-0.6,0-0.8v-0.7l0.1-0.5c0-0.3,0-0.5,0-0.8c0-0.2,0.1-0.5,0.1-0.9v-0.2l0.1-0.2v-1.2
		c-0.2-0.1-0.6-0.1-0.9-0.1l-0.6-0.2H210h-0.9h-0.3c-0.3,0-0.6-0.1-0.9-0.1H207.7z M207,34.7v0.4C207.5,34.9,207.5,34.8,207,34.7z
		 M209.4,27.2c-0.9,0.6-1.3,1.5-1.3,2.7l0.3,0.1c0.3,0.9,1,1.3,1.9,0.9c1.1-0.3,1.6-1,1.6-2.3C211.6,27.6,210.7,27.1,209.4,27.2z
		 M210.2,23.2l-0.2,0.6c0.2,0.1,0.4,0,0.5-0.1c0-0.2-0.1-0.3-0.3-0.2V23.2z M212.7,25.7c0,0.3,0.1,0.3,0.2,0.1L212.7,25.7z"/>
	<path class="st0" d="M218.2,27.8c0.3-0.1,0.7-0.2,1.1-0.2c0.3-0.1,0.5-0.1,0.8-0.1l0.3-0.1l0.8-0.1l0.7-0.1l0.4-0.1l0.3,0l1.5-0.2
		l0.5-0.1l0.5,0l0.6,0l0.5-0.1l0.5,0l0.5-0.1l0.6,0l1.9-0.3l0.3,0l0.5-0.1c0.2,0.5,0.5,1.2,0.9,1.9l0.1,0.3l0.6,1.4
		c0,0.1,0.1,0.1,0.1,0.2l0.1,0.3l0.4,0.7l0.1,0.5c2.9,3.9,3,8.4,0.3,13.6l-2.3,0l-1.1,0l-0.5-0.1l-0.5,0l-0.4,0c-0.3,0-0.6,0-1.1,0
		l-0.5-0.1l-1.4,0l-1.4,0l-0.2,0l-0.3,0c-0.4,0-1,0-1.6-0.1l-0.8,0l-0.4,0l-0.3,0.1l-0.6,0l-0.7,0l-0.6,0l-0.7,0l-1.7,0l-1.4-5.2
		c0.3-0.5,0.5-1.2,0.7-1.9l0.1-0.3l0.1-0.2l0.1-0.4l0-0.3l0.2-0.2l0-0.3l0.1-0.3c0.1-0.2,0.2-0.6,0.3-1c0.1-0.2,0.3-0.5,0.4-0.9
		l0-0.4l0.4-1l0.5-1.5l0.2-0.7c0.1-0.2,0.3-0.5,0.4-0.8l0.2-0.5L218.2,27.8z M222.4,27.9c-1.7,0.3-3,1.3-4,2.8c0,2.2,1,2.9,3,2.1
		c1-1.3,0.8-2.4-0.7-3.4l0-0.3c0.9-0.6,1.9-0.9,3.1-0.8l0.1-0.2c0.1,0.3,0.3,0.5,0.7,0.4c0.2,0.3,0.5,0.3,0.9,0.3
		c1.7,2.5,1.1,4.2-1.8,5.1l-0.4,0.4l-0.5-0.1c-4,0.6-5.4,2.5-4.4,5.7c1.1,1.7,2.5,2.2,4.3,1.6c1.8,0.2,3.2-0.5,4.1-2.3l0.7-0.4
		c-0.2,0.8,0.1,1.2,0.8,1.2c0.1,0.8,1.1,1.1,3,0.8c0.4-0.1,0.7-0.3,0.9-0.6c1.6-0.2,2.1-1.4,1.5-3.7c-0.1,0-0.2,0.1-0.2,0.2
		c0,0.2,0.1,0.4,0.2,0.6c-0.2,0.5-0.4,1.1-0.4,1.8c-0.1,0.1-0.2,0.2-0.1,0.3l-0.8,0.3l-0.6,0c-0.1-0.2-0.3-0.4-0.5-0.5
		c0-0.4,0-0.8-0.1-1.2c0.1,0,0.1-0.1,0.1-0.2l-0.1-0.2l-0.1-0.4l-0.1-1.6l-0.1-0.7l0-0.3v-0.4l-0.1-0.4v-0.4l0-0.7
		c-0.1-0.7-0.3-1.6-0.7-2.6l-0.1-0.3c-1.7-2.1-4-2.7-6.9-1.8C223.1,27.9,222.8,27.9,222.4,27.9z M226.1,33.4l0.4-0.1l0.3,0.4
		c-0.1,0.4-0.1,0.8,0,1.3c-0.1,0.5,0,1.2,0.1,1.8l0,0.3l0.1,0.2c-0.1,0.4-0.2,0.8-0.2,1.3c-0.2,0.2-0.3,0.5-0.3,0.9l-0.4,0.3
		c-0.8,0.9-1.7,1.1-2.7,0.5l-0.3,0.1c-0.7-1-1-2.2-0.9-3.6c0.2-0.2,0.3-0.6,0.3-1c0.4-0.1,0.6-0.4,0.9-0.7c0.3-0.1,0.7-0.4,1.1-0.7
		C225.1,34.3,225.6,33.9,226.1,33.4z M229.4,35c1.1,0.3,1.1,0.4,0,0.6L229.4,35z"/>
	<path class="st0" d="M236.2,26.6l1.1,2.2l-0.1,1.4l0.3,0.3l-0.5,0.3l0.3,0.3l-0.6,0.6l0.2,0.6l-0.5,0.8l0.6,0.6l0.6-0.1l-0.3,0.7
		l-0.5,0.6l0.9,1.1l-0.6,1.2c0.4,0.6,0.1,0.9-0.8,1.1l-0.7,2L236.2,26.6z M238.4,26.8l4,0.1l0.6,0l0.8,0l0.6,0l1,0
		c0.1,2.1,1,3.9,2.8,5.5c0.5-2,0.3-3.4-0.7-4.4c-0.1-0.4,0-0.7,0.4-1c1-0.1,2.2,0,3.8,0.3l0,0.8c-0.6,0.1-1,0.5-1,1.2l-0.1,4l0,0.6
		l0,0.8l0,0.6l-0.1,3.6l0,0.8l0,0.6l0,0.8l0,0.8c0.4,0.3,0.7,0.8,1,1.4l-1.4,0.2c-0.8-0.3-1.6-0.3-2.6-0.1l-0.6-0.2
		c0.5-0.6,0.9-1.4,1.1-2.4c0.1-0.6,0-1.2-0.1-2c-0.3-0.7-0.9-1.4-1.6-2c-0.1-0.5-0.4-0.9-0.9-1.4l-0.2-0.6l-0.4-0.4l-0.4-0.4
		l-0.4-0.8l-0.4-0.4l-0.8-1.2l-0.4-0.4l-0.6-0.6l-0.4-0.6l-0.1,2.4l0,0.6l-0.1,3.4l0,0.8l0,0.8l0,0.8l0,0.8l-0.1,2.2
		c0.4,0.3,0.8,0.8,1,1.4c-0.9,0.1-2.1,0-3.6-0.1c-0.2,0-0.4,0-0.8,0c0.2-0.5,0.5-1,1.1-1.6l0.4-12.6c-0.2-0.5-0.6-1-1.2-1.4
		L238.4,26.8z M239.6,35.8c-0.2,0.2-0.4,0.3-0.6,0.3C239.2,36.4,239.4,36.3,239.6,35.8z M239.8,40.3c0.5,0.8,0.4,1.2-0.2,1.2
		l-0.4-0.5l-0.2,1.1C241,41.7,241.3,41.1,239.8,40.3z M239.4,32c0.9-0.2,0.8-0.5-0.2-0.7C239.6,31.5,239.6,31.8,239.4,32z
		 M239.6,37.5c0.5-0.4,0.5-0.7-0.2-1C239.7,36.8,239.7,37.2,239.6,37.5z M239.9,39.9c0.5-0.6,0.4-0.7-0.1-0.4L239.9,39.9z
		 M240.6,37.3l-0.5,0.3C240.4,37.8,240.5,37.7,240.6,37.3z M240.6,34.9l-0.4,0.2C240.5,35.4,240.6,35.4,240.6,34.9z M242.7,37.3
		c-0.5,0-1-0.2-1.4-0.6C241.7,36.8,242.2,37,242.7,37.3z M241.5,35.5c0.5,0.1,0.6,0,0.4-0.4L241.5,35.5z M242.2,38.9
		c-0.3-0.2-0.6-0.5-0.7-0.8C241.5,38.7,241.8,39,242.2,38.9z M241.9,36.7c0.3-0.3,0.2-0.4-0.2-0.4L241.9,36.7z M243.3,37.8
		c-0.3-0.3-0.7-0.4-1-0.4C242.6,37.6,243,37.7,243.3,37.8z M243.6,44.3c-1.4-0.3-1.4-0.6-0.2-1C243,43.7,243.1,44,243.6,44.3z
		 M243.7,36.1c-0.2-0.4-0.5-0.7-1-1.1C243.4,35.1,243.7,35.4,243.7,36.1z M243.4,38.8c-0.5,0.1-0.6-0.1-0.3-0.5L243.4,38.8z
		 M243.1,40.5c-0.3-0.5-0.1-0.7,0.6-0.6L243.1,40.5z M244.7,40.6c-0.8,0.4-0.9,0.2-0.2-0.6L244.7,40.6z M245.7,37l-0.7,0.4
		C245.1,36.8,245.4,36.7,245.7,37z M245.5,40.4l-0.5,0.3C245,40.1,245.2,40,245.5,40.4z M246.2,41.3c-0.4-0.3-0.7-0.2-1,0.2
		C245.6,39.9,245.9,39.8,246.2,41.3z M246.7,38.5c-0.9-0.4-1-0.9-0.3-1.4C246.2,37.5,246.3,38,246.7,38.5z M247.4,39.1
		c-0.3,0-0.6,0.2-0.9,0.4C246.6,38.8,246.9,38.7,247.4,39.1z M246.6,25.1l0,0.2l1.5,0.1l0.6,0l0.8,0h0.3c0.2,0,0.3,0,0.5,0.1h0.6
		l1.3,0h0.3h0.3l0-0.2c-0.3,0-0.9,0-1.8,0.1l-0.2-0.1l-2.4-0.2l-0.4,0.1L246.6,25.1z M252.3,34.5l0.4-2.3l0-0.3l0-0.4l0-1.1l0-0.4
		c0-0.2,0.1-0.5,0.2-0.7l0-0.8l0.1-1.8l0-0.4l0-0.4l0.2-0.6c-0.4,0.8-0.5,1.8-0.4,3l-0.2,0.3l-0.1,3.1l0,0.4L252.3,34.5z"/>
</g>
<g>
	<path class="st0" d="M272.9,25.6h11.4l1.9,1.8v9.4l-1.9,1.9h-1.2l2.6,5.1h1.5v3.6h-3.6l-4.3-8.7h-1.2v5.1h1.6v3.6h-6.8v-3.6h1.6
		V29.2h-1.6V25.6z M282.5,29.2h-4.5v6h4.5V29.2z"/>
	<path class="st0" d="M288.7,47.4v-3.6h1.6V29.2h-1.6v-3.6h6.8v3.6h-1.6v14.7h1.6v3.6H288.7z"/>
	<path class="st0" d="M297,27.9l2.2-2.3h7.2l2.1,2.1v4.5H305v-3.1h-4.5v14.7h4.5v-3.1h3.6v4.8l-1.9,1.9h-7.5l-2.2-2.2V27.9z"/>
	<path class="st0" d="M310.1,47.4v-3.6h1.6V29.2h-1.6v-3.6h6.8v3.6h-1.6v5.3h4.5v-5.3h-1.6v-3.6h6.8v3.6h-1.6v14.7h1.6v3.6h-6.8
		v-3.6h1.6V38h-4.5v5.9h1.6v3.6H310.1z"/>
	<path class="st0" d="M326.4,43.8h1.5l4.9-18.2h3.2l4.9,18.2h1.8v3.6h-7v-3.6h1.8l-0.4-1.4h-5.3l-0.4,1.4h1.9v3.6h-6.8V43.8z
		 M334.5,32.3l-1.8,6.6h3.5L334.5,32.3z"/>
	<path class="st0" d="M344.2,25.6h11.4l1.9,1.8v9.4l-1.9,1.9h-1.2l2.6,5.1h1.5v3.6h-3.6l-4.3-8.7h-1.2v5.1h1.6v3.6h-6.8v-3.6h1.6
		V29.2h-1.6V25.6z M353.9,29.2h-4.5v6h4.5V29.2z"/>
	<path class="st0" d="M360,25.6h11.4l1.9,1.8v18l-2.1,2H360v-3.6h1.6V29.2H360V25.6z M369.7,29.2h-4.5v14.7h4.5V29.2z"/>
</g>
</svg>
