<?xml version="1.0" encoding="utf-8"?>
<!-- Generator: Adobe Illustrator 19.2.1, SVG Export Plug-In . SVG Version: 6.00 Build 0)  -->
<svg version="1.1" id="Ebene_1" xmlns="http://www.w3.org/2000/svg" xmlns:xlink="http://www.w3.org/1999/xlink" x="0px" y="0px"
	 viewBox="0 0 137 41.8" style="enable-background:new 0 0 137 41.8;" xml:space="preserve">
<style type="text/css">
	.st0{fill-rule:evenodd;clip-rule:evenodd;fill:#FFFFFF;}
	.st1{fill-rule:evenodd;clip-rule:evenodd;fill:#00A6E2;}
</style>
<polygon class="st0" points="11.8,29.8 1.6,40 8.6,40 15.3,33.3 "/>
<polygon class="st1" points="25.2,40 17.6,32.4 10,40 "/>
<polygon class="st1" points="126.9,40 135.8,40 124.7,28.9 120.3,33.3 "/>
<polygon class="st0" points="118.8,33.3 112.4,39.8 112.2,40 112.7,40 125.5,40 "/>
<polygon class="st0" points="56.4,18.6 49.9,12.1 42.7,19.2 47.3,23.8 49.4,21.7 51.5,23.7 "/>
<polygon class="st0" points="36,14 18.4,31.6 26.7,40 31.2,40 46.5,24.6 "/>
<polygon class="st0" points="103.1,21.5 96.1,14.5 92.4,18.2 97.9,23.7 97.9,23.7 99.4,25.2 "/>
<polygon class="st1" points="66.2,40 49.4,23.2 32.6,40 "/>
<polygon class="st1" points="100,25.9 112.4,38.3 118.1,32.6 105.7,20.2 "/>
<polygon class="st1" points="74.6,1.9 52.1,24.4 67.7,40 81.7,40 97.2,24.5 "/>
<polygon class="st0" points="111.7,39 98,25.3 97.9,25.2 83.1,40 83.3,40 110.7,40 "/>
</svg>
