<?xml version="1.0" encoding="utf-8"?>
<!-- Generator: Adobe Illustrator 16.0.0, SVG Export Plug-In . SVG Version: 6.00 Build 0)  -->
<!DOCTYPE svg PUBLIC "-//W3C//DTD SVG 1.1//EN" "http://www.w3.org/Graphics/SVG/1.1/DTD/svg11.dtd">
<svg version="1.1" id="Ebene_1" xmlns="http://www.w3.org/2000/svg" xmlns:xlink="http://www.w3.org/1999/xlink" x="0px" y="0px"
	 width="841.889px" height="595.281px" viewBox="0 0 841.889 595.281" enable-background="new 0 0 841.889 595.281"
	 xml:space="preserve">
<path fill="#00A6E2" d="M662.487,280.737V250.85h22.537c3.92,0,7.35,0.487,9.799,1.47c2.939,0.979,4.899,2.94,6.369,4.899
	c1.47,1.96,2.45,4.896,2.45,8.326v0.49c0,4.409-1.471,8.329-4.899,10.778c-3.43,2.45-7.84,3.92-13.719,3.92L662.487,280.737
	L662.487,280.737z M627.698,345.41h34.296v-37.726h15.188l24.986,37.726h39.686l-29.396-43.112c5.391-1.96,9.8-4.899,13.72-8.819
	c3.919-3.433,6.856-7.839,8.817-12.738c1.959-4.899,2.938-10.289,3.431-16.658v-0.489c0-5.88-0.979-11.759-2.939-16.169
	c-1.96-4.896-4.409-8.815-8.329-12.735c-3.919-4.409-9.799-7.839-16.168-9.799c-6.856-2.449-14.695-3.433-24.007-3.433H628.19
	V345.41H627.698z M509.621,345.41h100.931v-29.396H543.43v-19.601H603.2v-26.944H543.43V250.85h65.649v-29.396h-99.458V345.41
	L509.621,345.41z M408.206,315.033v-63.202h14.205c6.859,0,12.738,1.47,18.128,3.919c4.899,2.45,9.312,5.88,11.762,10.779
	c2.938,4.899,4.408,10.288,4.408,17.146v0.49c0,6.859-1.472,12.249-4.408,17.148c-2.939,4.899-6.859,8.329-11.762,10.778
	c-4.896,2.448-11.269,3.43-18.128,3.92h-14.205V315.033z M373.91,345.41h47.031c11.271,0,21.067-1.47,29.887-4.896
	c8.818-2.939,16.168-7.353,22.05-13.229c5.88-5.39,10.776-12.249,13.719-19.598c2.938-7.35,4.896-15.682,4.896-24.987v-0.49
	c0-8.815-1.47-17.146-4.896-24.497c-2.939-7.349-7.839-13.718-13.719-19.598c-5.882-5.39-13.229-9.799-22.05-12.738
	c-8.816-2.938-18.615-4.409-29.887-4.409H372.93V345.41H373.91z M234.277,345.41h34.296v-68.103l52.914,68.103h30.376V220.965
	h-34.296v65.651l-50.954-65.651h-32.336V345.41L234.277,345.41z M155.886,347.859c8.818,0,16.658-0.979,24.007-3.43
	c7.353-2.449,13.229-5.879,18.128-10.288c4.899-4.899,8.819-10.779,11.759-18.128c2.939-7.353,3.923-15.679,3.923-25.971v-69.081
	h-34.786v70.062c0,5.879-0.98,10.778-2.939,14.208c-1.96,3.92-4.41,6.369-7.84,8.329s-7.349,2.939-12.248,2.939
	c-4.897,0-8.819-0.979-12.249-2.939s-5.879-4.898-7.839-8.818s-2.939-8.816-2.939-14.699v-69.08H98.073v69.57
	c0,9.802,1.473,18.128,3.923,25.479c2.446,7.349,6.366,13.229,11.269,17.638s11.271,8.329,18.128,10.289
	C138.738,346.389,147.067,347.859,155.886,347.859z"/>
<path fill="#FFFFFF" d="M658.073,458.59v-57.323h12.739c6.369,0,11.758,0.979,16.168,3.43c4.409,2.449,8.329,5.392,10.778,9.799
	c2.45,4.409,3.92,9.312,3.92,15.681v0.487c0,5.88-1.47,11.271-3.92,15.681c-2.449,4.41-6.369,7.35-10.778,9.799
	c-4.41,2.45-10.289,3.43-16.168,3.43h-12.739V458.59L658.073,458.59z M626.721,486.513h43.114c10.288,0,19.105-1.47,27.437-4.41
	c7.84-2.939,14.699-6.858,20.088-11.758c5.393-4.899,9.799-11.271,12.738-18.128c2.938-6.859,4.41-14.209,4.41-22.538v-0.489
	c0-8.329-1.473-15.679-4.41-22.537c-2.939-6.856-6.858-12.739-12.248-17.639c-5.39-4.9-12.249-8.818-20.088-11.759
	c-7.839-2.939-16.658-3.919-26.946-3.919h-44.095V486.513L626.721,486.513z M527.262,486.513h86.229v-27.438h-54.874v-85.737
	h-31.354L527.262,486.513L527.262,486.513z M442.502,427.72v-26.947h20.574c3.433,0,6.369,0.49,8.819,1.47
	c2.449,0.98,4.409,2.45,5.879,4.41c1.47,1.959,1.96,4.409,1.96,7.352v0.487c0,4.409-1.47,7.352-4.409,9.801
	c-2.938,2.447-6.856,3.431-12.249,3.431L442.502,427.72L442.502,427.72z M411.146,486.513h31.356v-34.296h13.719l22.537,34.296
	h36.256l-26.947-39.195c4.899-1.96,8.819-4.41,12.249-7.839c3.429-3.43,6.369-6.859,7.839-11.759
	c1.96-4.41,2.939-9.799,2.939-15.188v-0.487c0-5.392-0.979-10.778-2.449-14.698c-1.471-4.409-4.41-8.329-7.35-11.271
	c-3.923-3.92-8.819-6.856-14.698-8.816c-5.879-1.959-13.229-3.432-22.048-3.432h-53.403V486.513L411.146,486.513z M334.225,460.55
	c-4.409,0-8.329-0.98-11.759-2.45s-6.369-3.919-9.309-6.859c-2.45-2.938-4.409-5.879-5.882-9.799
	c-1.471-3.43-1.96-7.349-1.96-11.759v-0.489c0-3.92,0.489-7.839,1.96-11.759c1.473-3.433,3.432-6.859,5.882-9.799
	c2.446-2.939,5.39-4.899,8.816-6.369s7.352-2.45,11.758-2.45c4.41,0,8.329,0.98,11.762,2.45c3.43,1.47,6.366,3.919,9.31,6.856
	c2.449,2.939,4.409,5.879,5.879,9.802c1.47,3.43,1.96,7.349,1.96,11.758v0.49c0,3.92-0.49,7.839-1.96,11.759
	c-1.47,3.43-3.43,6.856-5.879,9.799c-2.45,2.938-5.39,4.896-8.819,6.369C342.555,459.567,338.634,460.55,334.225,460.55z
	 M334.225,488.473c6.859,0,13.719-0.98,19.598-2.94c6.369-1.959,11.762-4.896,16.658-8.328c4.899-3.43,9.312-7.84,13.229-12.736
	c3.43-4.899,6.369-10.288,8.329-16.168c1.96-5.879,2.938-12.248,2.938-18.618v-0.489c0-6.369-0.979-12.738-2.938-18.618
	c-1.96-5.879-4.899-11.269-8.329-16.168c-3.433-4.896-7.839-8.817-12.738-12.737c-4.899-3.431-10.779-6.367-16.658-8.327
	c-6.369-1.96-12.735-2.939-19.598-2.939s-13.719,0.979-19.598,2.939c-6.369,1.96-11.762,4.896-16.658,8.327
	c-4.899,3.432-9.312,7.841-13.229,12.737c-3.43,4.899-6.369,10.289-8.329,16.168s-2.938,12.249-2.938,18.618v0.489
	c0,6.37,0.979,12.739,2.938,18.618c1.96,5.88,4.899,11.269,8.329,16.168c3.433,4.896,7.839,8.816,12.738,12.736
	c4.899,3.432,10.779,6.369,16.658,8.328C320.506,487.493,326.876,488.473,334.225,488.473z M133.349,487.007h27.438l22.534-65.163
	l22.537,65.163h27.438l37.726-113.667h-32.337l-19.597,65.16l-21.56-65.65h-26.944l-21.559,65.65l-19.598-65.16H95.623
	L133.349,487.007z"/>
<path fill="#00A6E2" d="M691.393,518.849h10.778v54.874h27.927v9.799h-38.705V518.849L691.393,518.849z M614.472,518.359h10.289
	l24.007,65.163h-11.271l-5.39-15.188H606.63l-5.393,15.188h-10.775L614.472,518.359z M628.68,558.535l-9.312-25.967l-9.309,25.967
	H628.68z M497.375,518.849h11.759l16.168,48.994l16.169-48.994h11.269l-22.538,65.162h-9.799L497.375,518.849z M442.99,518.849
	h10.778v65.162H442.99V518.849L442.99,518.849z M370.971,528.648h-17.148v-9.799h45.075v9.799H381.75v54.874h-10.778
	L370.971,528.648L370.971,528.648z M292.09,584.505c-4.41,0-8.329-0.979-12.249-2.449c-3.919-1.474-7.839-3.92-11.271-7.353
	l6.369-7.839c2.45,1.96,4.899,3.919,7.839,5.393c2.94,1.47,5.883,2.446,9.312,2.446c2.938,0,5.879-0.979,7.349-2.446
	c1.96-1.474,2.94-3.433,2.94-5.881l0,0c0-0.979,0-1.961-0.49-2.938c-0.49-0.979-0.979-1.96-1.96-2.45
	c-0.979-0.979-1.96-1.47-3.92-2.448c-1.47-0.979-3.919-1.961-6.369-2.448c-2.938-0.979-5.879-2.449-8.329-3.432
	c-2.449-0.979-4.409-2.448-5.879-3.92c-1.47-1.47-2.938-3.43-3.43-5.39c-0.979-1.96-0.979-4.409-0.979-6.859l0,0
	c0-2.447,0.489-4.896,1.473-7.349c0.979-2.45,2.446-3.92,4.406-5.88c1.96-1.472,3.92-2.939,6.369-3.919
	c2.45-0.98,5.393-1.472,8.329-1.472c3.92,0,7.353,0.488,10.779,1.96c3.428,1.472,6.855,2.938,9.799,5.881l-6.37,8.328
	c-2.449-1.962-4.409-3.432-6.855-4.408c-2.45-0.98-4.899-1.96-7.353-1.96c-2.938,0-5.39,0.486-6.857,1.96
	c-1.472,1.47-2.448,3.429-2.448,5.389l0,0c0,0.979,0,1.96,0.487,2.939c0.489,0.979,0.979,1.96,1.961,2.447
	c0.979,0.979,2.448,1.473,3.921,2.449c1.96,0.979,3.919,1.96,6.856,2.94c2.939,0.979,5.879,2.446,7.839,3.43
	c1.96,1.47,3.92,2.449,5.393,3.919c1.47,1.47,2.446,3.43,3.43,4.899c0.489,1.96,0.979,3.92,0.979,6.367l0,0
	c0,2.938-0.49,5.392-1.473,7.842c-0.979,2.446-2.45,4.406-4.409,5.879c-1.96,1.47-3.92,2.938-6.856,3.92
	C297.969,584.011,295.52,584.505,292.09,584.505z M187.242,518.849h41.152v9.799H198.02v17.638h26.947v9.802H198.02v18.128h30.866
	v9.799h-41.645L187.242,518.849L187.242,518.849z M101.992,518.849h40.665v9.799H112.77v18.128h26.457v9.799H112.77v26.947h-10.775
	L101.992,518.849L101.992,518.849z"/>
<polygon fill="#FFFFFF" points="138.248,148.453 88.274,198.427 122.57,198.427 155.396,165.6 "/>
<polygon fill="#00A6E2" points="203.901,198.427 166.664,161.191 129.429,198.427 "/>
<polygon fill="#00A6E2" points="702.171,198.427 745.777,198.427 691.393,144.043 669.835,165.6 "/>
<polygon fill="#FFFFFF" points="662.487,165.6 631.13,197.447 630.15,198.427 632.6,198.427 695.313,198.427 "/>
<polygon fill="#FFFFFF" points="356.762,93.579 324.916,61.733 289.64,96.518 312.178,119.056 322.466,108.767 332.755,118.566 "/>
<polygon fill="#FFFFFF" points="256.814,71.042 170.584,157.271 211.249,198.427 233.297,198.427 308.258,122.975 "/>
<polygon fill="#FFFFFF" points="585.566,107.788 551.27,73.491 533.142,91.619 560.088,118.566 560.088,118.566 567.438,125.915 "/>
<polygon fill="#00A6E2" points="404.777,198.427 322.466,116.116 240.156,198.427 "/>
<polygon fill="#00A6E2" points="570.377,129.344 631.13,190.097 659.057,162.171 598.304,101.418 "/>
<polygon fill="#00A6E2" points="445.932,11.759 335.695,121.996 412.126,198.427 480.718,198.427 556.656,122.486 "/>
<polygon fill="#FFFFFF" points="627.698,193.527 560.575,126.405 560.088,125.915 487.573,198.427 488.557,198.427 622.801,198.427 
	"/>
</svg>
