<?xml version="1.0" encoding="utf-8"?>
<!-- Generator: Adobe Illustrator 16.0.0, SVG Export Plug-In . SVG Version: 6.00 Build 0)  -->
<!DOCTYPE svg PUBLIC "-//W3C//DTD SVG 1.1//EN" "http://www.w3.org/Graphics/SVG/1.1/DTD/svg11.dtd">
<svg version="1.1" id="Ebene_1" xmlns="http://www.w3.org/2000/svg" xmlns:xlink="http://www.w3.org/1999/xlink" x="0px" y="0px"
	 width="841.889px" height="595.281px" viewBox="0 0 841.889 595.281" enable-background="new 0 0 841.889 595.281"
	 xml:space="preserve">
<path fill="#00A6E2" d="M662.487,280.737V250.85h22.537c3.92,0,7.35,0.488,9.799,1.47c2.939,0.979,4.899,2.94,6.369,4.899
	c1.47,1.96,2.45,4.897,2.45,8.327v0.49c0,4.409-1.471,8.329-4.899,10.778c-3.43,2.45-7.84,3.92-13.719,3.92L662.487,280.737
	L662.487,280.737z M627.698,345.41h34.296v-37.726h15.188l24.986,37.726h39.686l-29.396-43.113c5.39-1.96,9.799-4.899,13.719-8.819
	c3.919-3.432,6.857-7.839,8.818-12.738c1.959-4.899,2.938-10.289,3.43-16.658v-0.489c0-5.88-0.979-11.759-2.939-16.169
	c-1.96-4.897-4.409-8.816-8.329-12.736c-3.919-4.409-9.799-7.839-16.168-9.799c-6.857-2.449-14.696-3.432-24.007-3.432H628.19
	V345.41H627.698z M509.622,345.41h100.93v-29.396H543.43v-19.6h59.771v-26.945H543.43V250.85h65.65v-29.396h-99.458V345.41
	L509.622,345.41z M408.206,315.033v-63.202h14.206c6.859,0,12.738,1.47,18.128,3.919c4.899,2.45,9.311,5.88,11.761,10.779
	c2.938,4.899,4.409,10.288,4.409,17.146v0.49c0,6.859-1.472,12.249-4.409,17.148c-2.939,4.899-6.859,8.329-11.761,10.778
	c-4.897,2.449-11.269,3.43-18.128,3.92h-14.206V315.033z M373.91,345.41h47.032c11.271,0,21.067-1.47,29.887-4.897
	c8.818-2.939,16.168-7.352,22.049-13.229c5.88-5.39,10.777-12.249,13.719-19.598c2.938-7.35,4.897-15.681,4.897-24.987v-0.49
	c0-8.816-1.47-17.146-4.897-24.497c-2.939-7.349-7.839-13.718-13.719-19.598c-5.881-5.39-13.229-9.799-22.049-12.738
	c-8.817-2.938-18.616-4.409-29.887-4.409H372.93V345.41H373.91z M234.277,345.41h34.296v-68.103l52.914,68.103h30.376V220.965
	h-34.296v65.651l-50.954-65.651h-32.336V345.41L234.277,345.41z M155.886,347.859c8.818,0,16.658-0.979,24.007-3.43
	c7.352-2.449,13.229-5.879,18.128-10.288c4.899-4.899,8.819-10.779,11.759-18.128c2.939-7.352,3.922-15.679,3.922-25.97v-69.081
	h-34.786v70.062c0,5.879-0.98,10.778-2.939,14.208c-1.96,3.92-4.41,6.369-7.84,8.329s-7.349,2.939-12.248,2.939
	c-4.898,0-8.819-0.979-12.249-2.939s-5.879-4.898-7.839-8.818s-2.939-8.817-2.939-14.699v-69.08H98.073v69.57
	c0,9.801,1.472,18.128,3.922,25.479c2.447,7.349,6.367,13.229,11.269,17.638s11.27,8.329,18.128,10.289
	C138.738,346.389,147.067,347.859,155.886,347.859z"/>
<path fill="#3D3D40" d="M658.074,458.589v-57.323h12.739c6.369,0,11.758,0.979,16.168,3.43c4.409,2.449,8.329,5.391,10.778,9.799
	c2.45,4.409,3.92,9.311,3.92,15.68v0.488c0,5.879-1.47,11.271-3.92,15.68c-2.449,4.41-6.369,7.35-10.778,9.799
	c-4.41,2.45-10.289,3.43-16.168,3.43h-12.739V458.589L658.074,458.589z M626.721,486.513h43.114c10.288,0,19.106-1.47,27.437-4.41
	c7.84-2.939,14.699-6.858,20.088-11.758c5.392-4.899,9.799-11.271,12.738-18.128c2.938-6.859,4.41-14.209,4.41-22.538v-0.489
	c0-8.329-1.472-15.679-4.41-22.537c-2.939-6.857-6.858-12.739-12.248-17.639c-5.39-4.9-12.249-8.818-20.088-11.759
	c-7.839-2.939-16.658-3.919-26.946-3.919h-44.095V486.513L626.721,486.513z M527.262,486.513h86.229v-27.438h-54.874v-85.738
	h-31.354V486.513L527.262,486.513z M442.502,427.72v-26.947h20.575c3.432,0,6.369,0.49,8.819,1.47c2.449,0.98,4.409,2.45,5.879,4.41
	c1.47,1.959,1.96,4.409,1.96,7.351v0.488c0,4.409-1.47,7.351-4.409,9.8c-2.938,2.448-6.857,3.431-12.249,3.431L442.502,427.72
	L442.502,427.72z M411.146,486.513h31.356v-34.296h13.719l22.537,34.296h36.256l-26.947-39.195c4.899-1.96,8.819-4.41,12.249-7.839
	c3.429-3.43,6.369-6.859,7.839-11.759c1.96-4.41,2.939-9.799,2.939-15.188v-0.488c0-5.391-0.979-10.778-2.449-14.698
	c-1.471-4.409-4.41-8.329-7.35-11.271c-3.922-3.92-8.819-6.857-14.698-8.817c-5.879-1.959-13.229-3.431-22.048-3.431h-53.403
	V486.513L411.146,486.513z M334.225,460.549c-4.409,0-8.329-0.98-11.759-2.45s-6.369-3.919-9.309-6.859
	c-2.45-2.938-4.409-5.879-5.881-9.799c-1.471-3.43-1.96-7.349-1.96-11.759v-0.489c0-3.92,0.489-7.839,1.96-11.759
	c1.472-3.432,3.431-6.859,5.881-9.799c2.447-2.939,5.39-4.899,8.817-6.369s7.351-2.45,11.758-2.45c4.41,0,8.329,0.98,11.761,2.45
	c3.43,1.47,6.367,3.919,9.31,6.857c2.449,2.939,4.409,5.879,5.879,9.801c1.47,3.43,1.96,7.349,1.96,11.758v0.49
	c0,3.92-0.49,7.839-1.96,11.759c-1.47,3.43-3.43,6.857-5.879,9.799c-2.45,2.938-5.39,4.897-8.819,6.369
	C342.555,459.567,338.634,460.549,334.225,460.549z M334.225,488.473c6.859,0,13.719-0.98,19.598-2.94
	c6.369-1.959,11.761-4.897,16.658-8.328c4.899-3.43,9.311-7.84,13.229-12.737c3.43-4.899,6.369-10.288,8.329-16.168
	c1.96-5.879,2.938-12.248,2.938-18.618v-0.489c0-6.369-0.979-12.738-2.938-18.618c-1.96-5.879-4.899-11.269-8.329-16.168
	c-3.432-4.897-7.839-8.818-12.738-12.738c-4.899-3.43-10.779-6.367-16.658-8.327c-6.369-1.96-12.736-2.939-19.598-2.939
	s-13.719,0.979-19.598,2.939c-6.369,1.96-11.761,4.897-16.658,8.327c-4.899,3.432-9.311,7.841-13.229,12.738
	c-3.43,4.899-6.369,10.289-8.329,16.168s-2.938,12.249-2.938,18.618v0.489c0,6.37,0.979,12.739,2.938,18.618
	c1.96,5.88,4.899,11.269,8.329,16.168c3.432,4.897,7.839,8.817,12.738,12.737c4.899,3.431,10.779,6.369,16.658,8.328
	C320.506,487.493,326.876,488.473,334.225,488.473z M133.349,487.006h27.438l22.535-65.163l22.537,65.163h27.438l37.726-113.667
	h-32.337L219.089,438.5l-21.559-65.651h-26.945L149.027,438.5l-19.598-65.161H95.623L133.349,487.006z"/>
<path fill="#00A6E2" d="M691.393,518.849h10.778v54.874h27.927v9.799h-38.705V518.849L691.393,518.849z M614.472,518.359h10.289
	l24.007,65.163h-11.271l-5.39-15.188h-25.477l-5.392,15.188h-10.776L614.472,518.359z M628.68,558.535l-9.311-25.967l-9.309,25.967
	H628.68z M497.375,518.849h11.759l16.168,48.994l16.169-48.994h11.269l-22.538,65.162h-9.799L497.375,518.849z M442.99,518.849
	h10.778v65.162H442.99V518.849L442.99,518.849z M370.971,528.648h-17.148v-9.799h45.075v9.799H381.75v54.874h-10.778
	L370.971,528.648L370.971,528.648z M292.09,584.504c-4.41,0-8.329-0.979-12.249-2.449c-3.919-1.473-7.839-3.92-11.271-7.352
	l6.369-7.839c2.45,1.96,4.899,3.919,7.839,5.392c2.94,1.47,5.882,2.447,9.312,2.447c2.938,0,5.879-0.979,7.349-2.447
	c1.96-1.473,2.94-3.432,2.94-5.881l0,0c0-0.979,0-1.961-0.49-2.938c-0.49-0.979-0.979-1.96-1.96-2.45
	c-0.979-0.979-1.96-1.47-3.92-2.449c-1.47-0.979-3.919-1.96-6.369-2.448c-2.938-0.979-5.879-2.449-8.329-3.431
	c-2.449-0.979-4.409-2.449-5.879-3.92c-1.47-1.47-2.938-3.43-3.43-5.39c-0.979-1.96-0.979-4.409-0.979-6.859l0,0
	c0-2.448,0.489-4.897,1.472-7.349c0.979-2.45,2.447-3.92,4.407-5.88c1.96-1.472,3.92-2.939,6.369-3.919
	c2.45-0.98,5.392-1.472,8.329-1.472c3.92,0,7.352,0.489,10.779,1.96c3.428,1.472,6.856,2.939,9.799,5.881l-6.37,8.328
	c-2.449-1.961-4.409-3.431-6.856-4.408c-2.45-0.98-4.899-1.96-7.352-1.96c-2.938,0-5.39,0.487-6.858,1.96
	c-1.471,1.47-2.448,3.429-2.448,5.389l0,0c0,0.979,0,1.96,0.487,2.939c0.49,0.979,0.98,1.96,1.961,2.448
	c0.979,0.979,2.449,1.472,3.921,2.449c1.96,0.979,3.919,1.96,6.857,2.94c2.939,0.979,5.879,2.447,7.839,3.43
	c1.96,1.47,3.92,2.449,5.392,3.919c1.47,1.47,2.447,3.43,3.43,4.899c0.489,1.96,0.979,3.92,0.979,6.368l0,0
	c0,2.938-0.49,5.391-1.472,7.841c-0.979,2.447-2.45,4.407-4.409,5.879c-1.96,1.47-3.92,2.938-6.857,3.92
	C297.969,584.011,295.52,584.504,292.09,584.504z M187.242,518.849h41.153v9.799H198.02v17.638h26.947v9.801H198.02v18.128h30.866
	v9.799h-41.645L187.242,518.849L187.242,518.849z M101.992,518.849h40.665v9.799H112.77v18.128h26.457v9.799H112.77v26.947h-10.776
	L101.992,518.849L101.992,518.849z"/>
<polygon fill="#3D3D40" points="138.248,148.453 88.274,198.427 122.57,198.427 155.396,165.6 "/>
<polygon fill="#00A6E2" points="203.901,198.427 166.664,161.191 129.429,198.427 "/>
<polygon fill="#00A6E2" points="702.171,198.427 745.777,198.427 691.393,144.043 669.835,165.6 "/>
<polygon fill="#3D3D40" points="662.487,165.6 631.13,197.447 630.15,198.427 632.6,198.427 695.313,198.427 "/>
<polygon fill="#3D3D40" points="356.762,93.579 324.916,61.733 289.64,96.518 312.178,119.056 322.466,108.767 332.755,118.566 "/>
<polygon fill="#3D3D40" points="256.814,71.042 170.584,157.271 211.249,198.427 233.297,198.427 308.258,122.975 "/>
<polygon fill="#3D3D40" points="585.566,107.788 551.27,73.491 533.142,91.619 560.088,118.566 560.088,118.566 567.438,125.915 "/>
<polygon fill="#00A6E2" points="404.777,198.427 322.466,116.116 240.156,198.427 "/>
<polygon fill="#00A6E2" points="570.377,129.344 631.13,190.097 659.057,162.171 598.304,101.418 "/>
<polygon fill="#00A6E2" points="445.932,11.759 335.695,121.996 412.126,198.427 480.718,198.427 556.656,122.486 "/>
<polygon fill="#3D3D40" points="627.698,193.527 560.576,126.405 560.088,125.915 487.574,198.427 488.557,198.427 622.801,198.427 
	"/>
</svg>
