<?xml version="1.0" encoding="utf-8"?>
<!-- Generator: Adobe Illustrator 16.0.0, SVG Export Plug-In . SVG Version: 6.00 Build 0)  -->
<!DOCTYPE svg PUBLIC "-//W3C//DTD SVG 1.1//EN" "http://www.w3.org/Graphics/SVG/1.1/DTD/svg11.dtd">
<svg version="1.1" id="Ebene_1" xmlns="http://www.w3.org/2000/svg" xmlns:xlink="http://www.w3.org/1999/xlink" x="0px" y="0px"
	 width="288.948px" height="320.694px" viewBox="0 -34.788 288.948 320.694" enable-background="new 0 -34.788 288.948 320.694"
	 xml:space="preserve">
<title>Ticket_Header_Icon_grau</title>
<g>
	<path fill="#FFFFFF" d="M271.467,90.521c-1.627-2.796-3.232-5.605-4.854-8.405c-2.775-4.796-5.556-9.592-8.339-14.385
		c-2.795-4.842-5.563-9.699-8.358-14.541c-2.58-4.471-5.188-8.926-7.769-13.396c-2.983-5.172-5.941-10.358-8.929-15.529
		c-2.915-5.048-5.867-10.072-8.757-15.134c-0.156-0.474-0.668-0.731-1.144-0.574c-0.067,0.021-0.134,0.053-0.194,0.092
		c-2.326,0.773-4.758,1.186-7.209,1.218c-1.74,0.006-3.48-0.086-5.21-0.275c-2.887-0.327-5.696-1.138-8.313-2.397
		c-3.7-1.7-7.007-4.149-9.711-7.193c-1.122,0.648-2.244,1.295-3.365,1.943C131.696,35.21,74.073,68.479,16.447,101.75
		c-2.692,1.556-5.386,3.109-8.077,4.664c1.847,5.461,2.024,11.349,0.514,16.911C7.396,128.896,4.308,133.91,0,137.744
		c0.255,0.467,0.452,0.846,0.666,1.216c1.536,2.656,3.074,5.312,4.612,7.967c1.678,2.904,3.352,5.812,5.022,8.721
		c1.535,2.657,3.073,5.312,4.616,7.965c1.704,2.943,3.407,5.889,5.107,8.834c1.522,2.638,3.043,5.275,4.562,7.916
		c1.544,2.68,3.087,5.359,4.631,8.039c1.676,2.906,3.354,5.81,5.033,8.713c1.534,2.658,3.067,5.316,4.601,7.976
		c1.678,2.903,3.358,5.808,5.039,8.708c1.144,1.979,2.289,3.953,3.418,5.938c0.116,0.322,0.472,0.49,0.794,0.374
		c0.021-0.007,0.041-0.016,0.061-0.024c3.337-1.146,6.878-1.575,10.393-1.264c1.749,0.145,3.488,0.391,5.209,0.738
		c5.211,1.185,9.977,3.83,13.738,7.625c0.474,0.473,0.902,0.989,1.369,1.506c2.516-1.458,4.856-2.822,7.206-4.174
		c3.588-2.066,7.185-4.115,10.77-6.187c3.564-2.057,7.115-4.137,10.679-6.192c3.585-2.069,7.186-4.115,10.77-6.187
		c4.14-2.393,8.265-4.809,12.405-7.199c3.914-2.261,7.848-4.488,11.761-6.752c4.694-2.715,9.371-5.463,14.066-8.177
		c4.842-2.798,9.698-5.565,14.54-8.36c4.472-2.58,8.927-5.188,13.396-7.768c4.842-2.795,9.698-5.564,14.541-8.359
		c4.471-2.58,8.926-5.187,13.396-7.768c4.513-2.605,9.037-5.188,13.552-7.789c4.243-2.449,8.483-4.905,12.721-7.368
		c2.676-1.551,5.344-3.114,8.021-4.659c2.658-1.532,5.328-3.044,7.987-4.575c2.7-1.557,5.391-3.128,8.092-4.682
		c0.293-0.098,0.449-0.415,0.353-0.707c-0.013-0.033-0.025-0.063-0.043-0.095c-0.756-2.229-1.201-4.553-1.32-6.905
		c-0.174-2.574,0.01-5.16,0.543-7.685c0.683-3.339,1.939-6.535,3.713-9.445c1.408-2.379,3.183-4.521,5.254-6.353
		c0.265-0.137,0.367-0.46,0.23-0.725C271.492,90.562,271.48,90.541,271.467,90.521z M243.467,103.941
		c-1.585,1.624-3.432,2.968-5.464,3.977c-2.602,1.491-5.189,3-7.786,4.499c-2.657,1.534-5.316,3.065-7.978,4.596
		c-2.657,1.531-5.317,3.063-7.977,4.597c-2.658,1.534-5.313,3.069-7.971,4.605c-2.574,1.488-5.149,2.977-7.726,4.465
		c-2.655,1.534-5.312,3.07-7.97,4.604c-2.659,1.532-5.319,3.062-7.98,4.589c-2.946,1.699-5.892,3.401-8.832,5.107
		c-2.655,1.538-5.307,3.085-7.966,4.617c-2.657,1.532-5.326,3.047-7.985,4.58c-2.886,1.661-5.769,3.331-8.646,5.007
		c-2.656,1.537-5.312,3.072-7.97,4.605c-2.905,1.679-5.811,3.354-8.716,5.029c-2.657,1.535-5.313,3.072-7.97,4.611
		c-2.658,1.53-5.319,3.06-7.983,4.583c-2.701,1.554-5.4,3.109-8.098,4.669c-2.555,1.478-5.102,2.966-7.654,4.442
		c-2.656,1.537-5.313,3.071-7.974,4.603c-2.658,1.532-5.318,3.062-7.979,4.592c-2.995,1.713-5.975,3.453-9.003,5.104
		c-1.434,0.775-3.047,1.154-4.676,1.096c-1.843-0.069-3.611-0.732-5.046-1.891c-1.629-1.436-2.956-3.179-3.908-5.13
		c-1.577-2.688-3.123-5.394-4.676-8.095c-1.53-2.66-3.048-5.326-4.58-7.985c-1.663-2.886-3.333-5.769-5.008-8.646
		c-1.536-2.656-3.073-5.312-4.608-7.969c-1.677-2.905-3.354-5.812-5.027-8.719c-1.545-2.679-3.091-5.355-4.637-8.033
		c-1.534-2.659-3.066-5.318-4.598-7.979c-1.244-1.833-2.182-3.857-2.773-5.993c-0.55-2.42,0-4.959,1.502-6.935
		c1.354-1.642,3.04-2.977,4.947-3.915c2.619-1.507,5.227-3.031,7.843-4.542c2.637-1.522,5.276-3.042,7.918-4.558
		c2.66-1.529,5.321-3.06,7.981-4.59c2.945-1.699,5.891-3.401,8.833-5.107c2.654-1.538,5.305-3.086,7.964-4.618
		c2.659-1.533,5.328-3.046,7.986-4.578c2.536-1.46,5.068-2.928,7.597-4.401c2.634-1.526,5.264-3.061,7.901-4.58
		c2.66-1.531,5.332-3.042,7.991-4.573c2.658-1.533,5.306-3.084,7.96-4.623c4.26-2.471,8.522-4.938,12.785-7.401
		c4.183-2.413,8.378-4.805,12.561-7.22c4.8-2.772,9.587-5.567,14.387-8.337c4.842-2.795,9.697-5.564,14.54-8.359
		c4.471-2.58,8.928-5.183,13.396-7.769c4.652-2.693,9.297-5.403,13.975-8.054c1.959-1.109,3.658-1.871,5.283-1.779
		c3.271-0.149,6.363,1.496,8.066,4.291c1.549,2.337,2.893,4.809,4.308,7.232c1.499,2.568,2.974,5.151,4.46,7.727
		c1.536,2.656,3.074,5.312,4.613,7.967c1.677,2.905,3.353,5.812,5.022,8.72c1.556,2.7,3.111,5.399,4.669,8.098
		c1.667,2.885,3.336,5.767,5.009,8.646c1.536,2.656,3.071,5.312,4.604,7.971c1.295,2.247,2.616,4.479,3.869,6.749
		c0.81,1.439,1.249,3.057,1.283,4.707C245.609,100.342,244.861,102.377,243.467,103.941z"/>
	<path fill="#FFFFFF" d="M286.893,173.665c-2.27-0.927-4.383-2.198-6.264-3.771c-1.324-1.129-2.585-2.332-3.775-3.603
		c-1.977-2.129-3.581-4.574-4.746-7.233c-1.7-3.7-2.614-7.713-2.685-11.783c-1.272-0.239-2.546-0.479-3.819-0.718
		c-7.455-1.4-14.911-2.803-22.367-4.202c-1.461,0.85-2.924,1.699-4.386,2.546c-4.239,2.459-8.479,4.914-12.722,7.368
		c-4.515,2.603-9.039,5.185-13.551,7.79c-4.472,2.58-8.927,5.188-13.396,7.768c-4.842,2.795-9.698,5.564-14.541,8.359
		c-4.47,2.58-8.925,5.188-13.396,7.768c-4.844,2.795-9.7,5.562-14.54,8.359c-4.695,2.715-9.372,5.462-14.067,8.177
		c-3.913,2.263-7.846,4.491-11.761,6.751c-4.142,2.391-8.267,4.809-12.405,7.201c-3.584,2.07-7.184,4.115-10.769,6.186
		c-3.564,2.058-7.115,4.138-10.68,6.193c-3.585,2.069-7.182,4.119-10.77,6.185c-2.35,1.354-4.69,2.717-7.207,4.175
		c-0.466-0.516-0.896-1.032-1.369-1.506c-3.762-3.796-8.527-6.44-13.738-7.625c-1.72-0.348-3.459-0.594-5.208-0.738
		c-3.515-0.312-7.056,0.118-10.393,1.264c-0.308,0.149-0.679,0.021-0.828-0.288c-0.01-0.02-0.018-0.04-0.025-0.061
		c-1.129-1.984-2.274-3.961-3.418-5.938c-1.679-2.904-3.357-5.807-5.039-8.709c-1.535-2.657-3.068-5.315-4.601-7.975
		c-1.677-2.905-3.354-5.811-5.033-8.713c-1.545-2.681-3.089-5.359-4.631-8.04c-0.764-1.326-1.528-2.651-2.292-3.979
		c-0.551,2.931-1.101,5.859-1.648,8.788c-0.566,3.018-1.135,6.032-1.703,9.049c-0.618,3.296-1.234,6.594-1.849,9.891
		c-0.42,2.246-0.837,4.489-1.272,6.731c-0.122,0.32,0.039,0.68,0.358,0.801c0.021,0.009,0.041,0.015,0.062,0.021
		c3.279,1.305,6.246,3.284,8.709,5.811c1.232,1.249,2.392,2.568,3.472,3.953c3.184,4.293,5.076,9.403,5.458,14.733
		c0.052,0.667,0.04,1.339,0.06,2.034c2.857,0.531,5.523,1.021,8.187,1.524c4.067,0.771,8.131,1.558,12.2,2.322
		c4.044,0.76,8.094,1.494,12.138,2.255c4.068,0.765,8.132,1.559,12.201,2.319c4.699,0.882,9.404,1.733,14.103,2.617
		c4.442,0.834,8.879,1.704,13.321,2.535c5.331,0.997,10.669,1.958,16,2.957c5.495,1.03,10.984,2.094,16.479,3.126
		c5.072,0.954,10.15,1.878,15.225,2.831c5.494,1.033,10.982,2.096,16.479,3.127c5.072,0.954,10.15,1.879,15.225,2.831
		c5.12,0.961,10.235,1.95,15.356,2.914c4.813,0.907,9.633,1.807,14.45,2.695c3.041,0.564,6.084,1.117,9.123,1.689
		c3.016,0.566,6.025,1.159,9.041,1.729c3.062,0.579,6.127,1.138,9.188,1.72c0.286,0.115,0.61-0.022,0.727-0.309
		c0.014-0.032,0.022-0.065,0.03-0.1c0.877-2.186,2.054-4.237,3.494-6.101c1.545-2.065,3.368-3.91,5.417-5.478
		c2.691-2.089,5.728-3.696,8.969-4.749c2.618-0.889,5.36-1.359,8.124-1.398c0.289,0.068,0.578-0.111,0.646-0.398
		c0.006-0.023,0.01-0.049,0.012-0.071c0.588-3.183,1.199-6.358,1.793-9.538c1.017-5.448,2.018-10.899,3.041-16.347
		c1.033-5.494,2.094-10.984,3.127-16.479c0.954-5.072,1.877-10.151,2.831-15.225c1.104-5.868,2.237-11.73,3.339-17.601
		c1.076-5.729,2.107-11.464,3.212-17.186c0.19-0.463-0.03-0.991-0.493-1.183C287.033,173.695,286.963,173.676,286.893,173.665z"/>
	<path fill="#FFFFFF" d="M199.264,30.881c2.455-0.119,4.743,1.236,5.816,3.447c2.082,3.687,4.232,7.334,6.349,11.002
		c1.878,3.257,3.739,6.523,5.62,9.777c1.868,3.233,3.759,6.454,5.629,9.688c1.679,2.904,3.336,5.821,5.014,8.727
		c2.45,4.244,4.906,8.483,7.365,12.723c1.678,2.905,3.371,5.802,5.004,8.732c1.306,2.214,0.963,5.027-0.836,6.864
		c-0.777,0.735-1.66,1.35-2.619,1.822c-3.673,2.155-7.362,4.28-11.053,6.406c-3.588,2.067-7.185,4.116-10.77,6.185
		c-3.564,2.058-7.115,4.138-10.681,6.194c-3.586,2.069-7.185,4.115-10.77,6.186c-3.789,2.189-7.564,4.405-11.354,6.595
		c-3.008,1.736-6.033,3.444-9.043,5.181c-2.884,1.664-5.754,3.354-8.637,5.021c-2.657,1.534-5.326,3.051-7.985,4.584
		c-2.659,1.53-5.311,3.075-7.968,4.61c-2.596,1.5-5.196,2.99-7.791,4.492c-4.838,2.802-9.674,5.605-14.51,8.41
		c-3.937,2.271-7.888,4.516-11.823,6.787c-4.471,2.58-8.926,5.188-13.396,7.768c-4.267,2.461-8.547,4.896-12.815,7.353
		c-4.372,2.514-8.741,5.035-13.105,7.562c-2.778,1.602-6.326,0.683-7.98-2.064c-2.737-4.738-5.47-9.479-8.199-14.223
		c-3.076-5.339-6.152-10.677-9.227-16.017c-3.066-5.316-6.135-10.633-9.204-15.948c-2.584-4.468-5.198-8.92-7.759-13.401
		c-0.793-1.131-1.353-2.409-1.644-3.76c-0.319-1.668,0.208-3.387,1.408-4.589c1.144-1,2.394-1.872,3.729-2.597
		c2.673-1.603,5.392-3.126,8.092-4.683c2.639-1.521,5.276-3.042,7.916-4.562c2.574-1.486,5.148-2.974,7.723-4.463
		c2.679-1.545,5.359-3.089,8.041-4.63c2.639-1.521,5.277-3.041,7.915-4.562c2.946-1.701,5.891-3.403,8.835-5.107
		c2.656-1.538,5.311-3.077,7.965-4.617c2.905-1.678,5.812-3.353,8.721-5.022c2.657-1.535,5.309-3.081,7.967-4.613
		c2.658-1.534,5.323-3.055,7.983-4.587c2.536-1.461,5.069-2.925,7.602-4.394c2.654-1.538,5.31-3.078,7.964-4.619
		c2.904-1.677,5.817-3.339,8.724-5.016c2.637-1.522,5.263-3.062,7.902-4.583c2.658-1.533,5.33-3.043,7.987-4.577
		c2.699-1.558,5.389-3.134,8.084-4.697c4.24-2.457,8.48-4.911,12.726-7.362c5.09-2.937,10.182-5.868,15.277-8.797
		c1.051-0.605,2.078-1.251,3.135-1.848C197.383,31.143,198.314,30.874,199.264,30.881z M144.192,112.309
		c-0.271-0.522-0.422-0.845-0.6-1.151c-2.05-3.54-4.104-7.078-6.157-10.615c-1.957-3.375-3.923-6.744-5.851-10.134
		c-0.082-0.305-0.396-0.485-0.699-0.404c-0.096,0.025-0.183,0.076-0.254,0.146c-2.053,1.2-4.106,2.399-6.172,3.577
		c-0.26,0.081-0.405,0.357-0.324,0.618c0.021,0.068,0.058,0.132,0.107,0.186c1.158,1.995,2.314,3.99,3.469,5.988
		c1.669,2.882,3.337,5.765,5.005,8.646c1.532,2.658,3.051,5.324,4.581,7.983c1.553,2.701,3.11,5.398,4.67,8.096
		c0.746,1.291,1.499,2.578,2.263,3.891c0.28-0.129,0.504-0.208,0.706-0.326c2.037-1.184,4.061-2.39,6.109-3.547
		c0.525-0.298,0.346-0.58,0.146-0.925c-1.661-2.857-3.32-5.717-4.98-8.574c-0.479-0.825-0.934-1.663-1.398-2.495
		c1.274,0.514,2.519,1.102,3.726,1.76c3.367,1.739,6.746,3.461,10.104,5.22c0.397,0.229,0.892,0.202,1.261-0.067
		c2.074-1.211,4.156-2.409,6.23-3.621c0.578-0.338,1.141-0.705,1.791-1.108c-2.503-1.14-4.855-2.228-7.223-3.287
		c-2.89-1.292-5.789-2.553-8.675-3.852c-0.18-0.126-0.287-0.331-0.289-0.55c0.084-1.041,0.207-2.079,0.338-3.115
		c0.21-1.671,0.436-3.341,0.653-5.011c0.227-1.718,0.46-3.434,0.672-5.151c0.089-0.724,0.133-1.455,0.21-2.36
		c-2.936,1.699-5.65,3.267-8.357,4.85c-0.146,0.102-0.243,0.26-0.267,0.437c-0.158,3.049-0.306,6.1-0.44,9.149
		c-0.069,1.624-0.095,3.249-0.154,4.873C144.348,111.731,144.281,112.023,144.192,112.309L144.192,112.309z M185.328,92.408
		c-0.527-0.899-1.031-1.704-1.479-2.538c-1.11-2.146-2.671-4.029-4.576-5.517c-2.195-1.804-5.063-2.572-7.868-2.109
		c-4.965,0.896-8.874,3.448-11.044,8.211c-1.115,2.344-1.448,4.984-0.95,7.532c0.759,4.188,2.977,7.975,6.262,10.685
		c2.691,2.262,6.291,3.126,9.717,2.338c2.09-0.475,4.081-1.306,5.889-2.456c2.562-1.442,4.8-3.396,6.572-5.742
		c0.301-0.286,0.337-0.754,0.082-1.083c-0.5-0.751-0.897-1.569-1.354-2.351c-0.439-0.75-0.896-1.489-1.395-2.313
		c-1.701,2.926-4.31,5.217-7.431,6.526c-1.541,0.75-3.316,0.866-4.942,0.322c-1.27-0.458-2.319-1.378-2.939-2.577L185.328,92.408z
		 M84.948,119.114l-26.405,15.228l3.502,6.058l9.378-5.4c0.086,0.059,0.164,0.127,0.229,0.207c0.98,1.714,1.947,3.437,2.933,5.146
		c1.531,2.66,3.075,5.312,4.609,7.968c1.679,2.904,3.354,5.811,5.029,8.717c0.905,1.565,1.82,3.125,2.717,4.695
		c0.185,0.322,0.332,0.367,0.67,0.168c2.17-1.285,4.352-2.553,6.542-3.801c0.372-0.212,0.478-0.404,0.254-0.787
		c-1.136-1.953-2.254-3.917-3.39-5.871c-1.815-3.127-3.636-6.251-5.459-9.373c-1.721-2.961-3.438-5.926-5.148-8.894
		c-0.48-0.831-0.938-1.678-1.417-2.541c1.073-0.619,2.062-1.19,3.051-1.76c1.959-1.126,3.919-2.252,5.88-3.376
		c0.392-0.225,0.577-0.456,0.218-0.897c-0.241-0.354-0.455-0.726-0.64-1.111C86.666,122.053,85.826,120.618,84.948,119.114z
		 M186.435,63.539c-0.458,0.521-0.813,0.966-1.213,1.369c-1.433,1.451-2.874,2.892-4.325,4.322c-0.379,0.286-0.459,0.822-0.18,1.205
		c0.426,0.715,0.852,1.43,1.269,2.149c0.46,0.793,0.91,1.592,1.367,2.394l-3.855,2.242c0.935,1.609,1.862,3.133,2.707,4.701
		c0.322,0.603,0.579,0.582,1.091,0.262c1.019-0.64,2.079-1.212,3.157-1.832c0.978,1.689,1.896,3.323,2.858,4.932
		c1.621,2.711,3.149,5.489,4.945,8.081c1.281,1.965,3.494,3.121,5.839,3.051c1.647-0.069,3.25-0.555,4.661-1.408
		c1.664-0.829,3.152-1.971,4.386-3.361c0.286-0.291,0.305-0.752,0.041-1.065c-0.585-1.008-1.151-2.025-1.737-3.033
		c-0.325-0.561-0.674-1.108-1.12-1.844c-0.63,0.686-1.157,1.237-1.658,1.813c-0.91,0.792-2.193,0.988-3.299,0.506
		c-0.847-0.496-1.534-1.223-1.984-2.094c-1.455-2.482-2.884-4.98-4.32-7.474c-0.434-0.754-0.858-1.515-1.312-2.316
		c1.617-0.941,3.138-1.869,4.702-2.715c0.584-0.314,0.528-0.573,0.241-1.049c-0.811-1.343-1.597-2.702-2.356-4.076
		c-0.271-0.489-0.492-0.577-0.99-0.27c-1.377,0.848-2.793,1.631-4.186,2.454c-0.207,0.199-0.535,0.192-0.734-0.014
		c-0.057-0.061-0.1-0.132-0.123-0.21c-0.379-0.715-0.781-1.415-1.186-2.114C188.248,66.645,187.373,65.149,186.435,63.539z
		 M129.566,114.901c-1.053-1.818-2.137-3.551-3.068-5.363c-0.268-0.607-0.955-0.912-1.584-0.699
		c-0.588,0.083-1.166,0.234-1.72,0.452c-3.094,1.144-5.902,2.944-8.231,5.279c-3.089,3.01-4.45,7.375-3.619,11.607
		c0.632,3.876,2.656,7.39,5.694,9.879c2.822,2.413,6.604,3.38,10.238,2.617c4.489-0.878,8.502-3.364,11.285-6.994
		c0.293-0.29,0.327-0.75,0.079-1.079c-0.752-1.27-1.467-2.56-2.21-3.833c-0.26-0.446-0.561-0.869-0.908-1.402
		c-0.995,1.98-2.536,3.634-4.441,4.766c-1.575,0.977-3.453,1.343-5.279,1.028c-1.721-0.342-3.247-1.325-4.27-2.751
		c-1.23-1.471-1.992-3.278-2.187-5.187c-0.209-2.381,0.846-4.695,2.78-6.101C124.227,115.454,126.892,114.658,129.566,114.901z
		 M101.603,122.162c-0.167,0.109-0.28,0.191-0.399,0.259c-1.82,1.035-3.644,2.063-5.459,3.104c-1.274,0.729-1.271,0.734-0.547,2.066
		c0.023,0.042,0.052,0.082,0.075,0.123c1.556,2.698,3.111,5.397,4.666,8.096c1.521,2.637,3.041,5.274,4.562,7.912
		c1.115,1.938,2.226,3.877,3.333,5.817c0.079,0.265,0.356,0.414,0.621,0.334c0.065-0.02,0.127-0.053,0.18-0.098
		c2.051-1.202,4.102-2.404,6.173-3.572c0.31-0.076,0.497-0.389,0.42-0.697c-0.022-0.094-0.069-0.181-0.135-0.252
		c-1.043-1.786-2.062-3.587-3.097-5.378c-1.667-2.882-3.335-5.763-5.008-8.642c-1.652-2.863-3.294-5.731-4.948-8.593
		C101.91,122.467,101.764,122.306,101.603,122.162L101.603,122.162z M88.955,117.031c0.016,0.227,0.044,0.453,0.085,0.676
		c0.528,2.393,2.896,3.901,5.289,3.372c0.396-0.087,0.778-0.229,1.137-0.421c2.784-1.358,3.929-4.028,2.499-6.485
		c-0.748-1.365-2.201-2.194-3.758-2.142c-1.271,0.059-2.48,0.558-3.423,1.412C89.65,114.291,88.975,115.616,88.955,117.031
		L88.955,117.031z"/>
	<path fill="#FFFFFF" d="M167.255,96.893c-1.019-2.032-1.137-5.234,0.595-7.002c1.592-1.625,4.375-2.377,6.357-0.31
		c0.646,0.675,1.207,1.431,1.861,2.213L167.255,96.893z"/>
</g>
<circle fill="#14A5DF" cx="236.977" cy="17.831" r="51.782"/>
<text transform="matrix(1 0 0 1 205.6936 47.3074)" fill="#FFFFFF" font-family="'Gotham-Bold'" font-size="91.1477">2</text>
</svg>
