<?xml version="1.0" encoding="utf-8"?>
<!-- Generator: Adobe Illustrator 19.2.1, SVG Export Plug-In . SVG Version: 6.00 Build 0)  -->
<svg version="1.1" id="Ebene_1" xmlns="http://www.w3.org/2000/svg" xmlns:xlink="http://www.w3.org/1999/xlink" x="0px" y="0px"
	 viewBox="0 0 132.9 132.9" style="enable-background:new 0 0 132.9 132.9;" xml:space="preserve">
<style type="text/css">
	.st0{fill:#1C3660;}
	.st1{clip-path:url(#SVGID_2_);fill:none;stroke:#009FE3;stroke-width:3;stroke-miterlimit:10;}
	.st2{fill:none;stroke:#14A5DF;stroke-width:0.5;stroke-miterlimit:10;}
	.st3{fill:#14A5DF;}
	.st4{fill:#FFFFFF;}
</style>
<polygon class="st0" points="123.9,9 123.9,1.5 9,1.5 9,9 1.5,9 1.5,123.9 9,123.9 9,131.4 123.9,131.4 123.9,123.9 131.4,123.9 
	131.4,9 "/>
<g>
	<defs>
		<rect id="SVGID_1_" width="132.9" height="132.9"/>
	</defs>
	<clipPath id="SVGID_2_">
		<use xlink:href="#SVGID_1_"  style="overflow:visible;"/>
	</clipPath>
	<polygon class="st1" points="123.9,9 123.9,1.5 9,1.5 9,9 1.5,9 1.5,123.9 9,123.9 9,131.4 123.9,131.4 123.9,123.9 131.4,123.9 
		131.4,9 	"/>
</g>
<line class="st2" x1="12.1" y1="115.2" x2="120.8" y2="115.2"/>
<line class="st2" x1="12.1" y1="17.7" x2="120.8" y2="17.7"/>
<polygon class="st3" points="58.3,5.7 59.6,8.7 62.8,9 60.4,11.1 61.1,14.2 58.3,12.6 55.6,14.2 56.3,11.1 53.9,9 57.1,8.7 "/>
<polygon class="st3" points="25.6,5.7 26.8,8.7 30,9 27.6,11.1 28.3,14.2 25.6,12.6 22.8,14.2 23.5,11.1 21.1,9 24.3,8.7 "/>
<polygon class="st3" points="41.9,5.7 43.2,8.7 46.4,9 44,11.1 44.7,14.2 41.9,12.6 39.2,14.2 39.9,11.1 37.5,9 40.7,8.7 "/>
<polygon class="st3" points="74.5,5.7 75.8,8.7 79,9 76.6,11.1 77.3,14.2 74.5,12.6 71.8,14.2 72.5,11.1 70.1,9 73.3,8.7 "/>
<polygon class="st3" points="107.3,5.7 108.6,8.7 111.8,9 109.4,11.1 110.1,14.2 107.3,12.6 104.5,14.2 105.2,11.1 102.8,9 106,8.7 
	"/>
<polygon class="st3" points="90.9,5.7 92.2,8.7 95.4,9 93,11.1 93.7,14.2 90.9,12.6 88.2,14.2 88.9,11.1 86.5,9 89.7,8.7 "/>
<polygon class="st3" points="58.3,118 59.6,121 62.8,121.3 60.4,123.4 61.1,126.5 58.3,124.9 55.6,126.5 56.3,123.4 53.9,121.3 
	57.1,121 "/>
<polygon class="st3" points="25.6,118 26.8,121 30,121.3 27.6,123.4 28.3,126.5 25.6,124.9 22.8,126.5 23.5,123.4 21.1,121.3 
	24.3,121 "/>
<polygon class="st3" points="41.9,118 43.2,121 46.4,121.3 44,123.4 44.7,126.5 41.9,124.9 39.2,126.5 39.9,123.4 37.5,121.3 
	40.7,121 "/>
<polygon class="st3" points="74.5,118 75.8,121 79,121.3 76.6,123.4 77.3,126.5 74.5,124.9 71.8,126.5 72.5,123.4 70.1,121.3 
	73.3,121 "/>
<polygon class="st3" points="107.3,118 108.6,121 111.8,121.3 109.4,123.4 110.1,126.5 107.3,124.9 104.5,126.5 105.2,123.4 
	102.8,121.3 106,121 "/>
<polygon class="st3" points="90.9,118 92.2,121 95.4,121.3 93,123.4 93.7,126.5 90.9,124.9 88.2,126.5 88.9,123.4 86.5,121.3 
	89.7,121 "/>
<g>
	<path class="st4" d="M30,33.2l1.3-1.5c0.9,0.7,1.8,1.2,2.9,1.2c0.9,0,1.4-0.4,1.4-0.9v0c0-0.5-0.3-0.8-2-1.2c-2-0.5-3.2-1.1-3.2-3
		v0c0-1.8,1.4-3,3.4-3c1.4,0,2.6,0.4,3.6,1.2l-1.1,1.6c-0.9-0.6-1.7-1-2.5-1c-0.8,0-1.3,0.4-1.3,0.9v0c0,0.6,0.4,0.9,2.1,1.3
		c2,0.5,3.1,1.2,3.1,2.9v0c0,1.9-1.5,3-3.6,3C32.6,34.8,31.1,34.2,30,33.2z"/>
</g>
<g>
	<path class="st4" d="M42.8,24.7h2l4.2,9.9h-2.3l-0.9-2.2h-4.1l-0.9,2.2h-2.2L42.8,24.7z M45,30.5l-1.3-3.2l-1.3,3.2H45z"/>
	<path class="st4" d="M50.5,24.8h2.3l2.6,4.1l2.6-4.1h2.3v9.8h-2.1v-6.4l-2.8,4.2h-0.1l-2.7-4.1v6.4h-2.1V24.8z"/>
	<path class="st4" d="M61.9,33.2l1.3-1.5c0.9,0.7,1.8,1.2,2.9,1.2c0.9,0,1.4-0.4,1.4-0.9v0c0-0.5-0.3-0.8-2-1.2
		c-2-0.5-3.2-1.1-3.2-3v0c0-1.8,1.4-3,3.4-3c1.4,0,2.6,0.4,3.6,1.2l-1.1,1.6c-0.9-0.6-1.7-1-2.5-1s-1.3,0.4-1.3,0.9v0
		c0,0.6,0.4,0.9,2.1,1.3c2,0.5,3.1,1.2,3.1,2.9v0c0,1.9-1.5,3-3.6,3C64.6,34.8,63.1,34.2,61.9,33.2z"/>
	<path class="st4" d="M73.6,26.8h-3v-2h8.1v2h-3v7.8h-2.2V26.8z"/>
	<path class="st4" d="M82.5,24.7h2l4.2,9.9h-2.3l-0.9-2.2h-4.1l-0.9,2.2h-2.2L82.5,24.7z M84.8,30.5l-1.3-3.2l-1.3,3.2H84.8z"/>
	<path class="st4" d="M89.2,29.7L89.2,29.7c0-2.8,2.2-5.1,5.1-5.1c1.8,0,2.8,0.5,3.9,1.3l-1.4,1.6c-0.8-0.6-1.4-1-2.6-1
		c-1.6,0-2.8,1.4-2.8,3.1v0c0,1.8,1.2,3.1,3,3.1c0.8,0,1.5-0.2,2-0.6v-1.4h-2.2V29h4.3v4.3c-1,0.9-2.4,1.6-4.2,1.6
		C91.3,34.8,89.2,32.6,89.2,29.7z"/>
</g>
<g>
	<path class="st4" d="M43.2,39.1h-1.5v-1h4.1v1h-1.5V43h-1.1V39.1z"/>
	<path class="st4" d="M47.7,38.1h1l2.1,4.9h-1.1l-0.4-1.1h-2.1L46.7,43h-1.1L47.7,38.1z M48.8,41l-0.7-1.6L47.5,41H48.8z"/>
	<path class="st4" d="M51,40.6L51,40.6c0-1.4,1.1-2.5,2.6-2.5c0.9,0,1.4,0.2,1.9,0.7l-0.7,0.8c-0.4-0.3-0.7-0.5-1.3-0.5
		c-0.8,0-1.4,0.7-1.4,1.5v0c0,0.9,0.6,1.6,1.5,1.6c0.4,0,0.7-0.1,1-0.3v-0.7h-1.1v-0.9h2.1v2.1c-0.5,0.4-1.2,0.8-2.1,0.8
		C52,43.1,51,42,51,40.6z"/>
	<path class="st4" d="M56.7,38.1h3.7v1h-2.6v1h2.3v1h-2.3v1h2.7v1h-3.7V38.1z"/>
	<path class="st4" d="M61.1,42.3l0.6-0.8c0.4,0.4,0.9,0.6,1.5,0.6c0.4,0,0.7-0.2,0.7-0.5v0c0-0.3-0.2-0.4-1-0.6
		c-1-0.3-1.6-0.5-1.6-1.5v0c0-0.9,0.7-1.5,1.7-1.5c0.7,0,1.3,0.2,1.8,0.6l-0.6,0.8C63.8,39.2,63.4,39,63,39c-0.4,0-0.6,0.2-0.6,0.4
		v0c0,0.3,0.2,0.4,1.1,0.6c1,0.3,1.6,0.6,1.6,1.5v0c0,1-0.7,1.5-1.8,1.5C62.4,43.1,61.6,42.8,61.1,42.3z"/>
	<path class="st4" d="M66.9,39.1h-1.5v-1h4.1v1H68V43h-1.1V39.1z"/>
	<path class="st4" d="M70.4,38.1h1.1V43h-1.1V38.1z"/>
	<path class="st4" d="M72.4,40.6L72.4,40.6c0-1.4,1.1-2.5,2.6-2.5c0.9,0,1.5,0.3,1.9,0.8l-0.7,0.8C75.9,39.2,75.5,39,75,39
		c-0.8,0-1.4,0.7-1.4,1.5v0c0,0.8,0.6,1.5,1.4,1.5c0.6,0,0.9-0.2,1.3-0.6l0.7,0.7c-0.5,0.5-1.1,0.9-2,0.9
		C73.5,43.1,72.4,42,72.4,40.6z"/>
	<path class="st4" d="M77.8,38.1h1.1v2.1l2-2.1h1.3l-2,2.1l2.1,2.8H81l-1.5-2.1l-0.6,0.6V43h-1.1V38.1z"/>
	<path class="st4" d="M82.9,38.1h3.7v1H84v1h2.3v1H84v1h2.7v1h-3.7V38.1z"/>
	<path class="st4" d="M88.8,39.1h-1.5v-1h4.1v1h-1.5V43h-1.1V39.1z"/>
</g>
<g>
	<path class="st4" d="M28.9,76.7c-1.8-1.8-3-4.5-3-9.5v-0.1c0-7.8,3.5-13.8,11.1-13.8c3.4,0,5.7,1,7.9,2.8l-2.9,4.3
		c-1.7-1.3-3-2-5.1-2c-3.1,0-4.7,2.5-5.1,5.8c1.3-0.8,2.7-1.6,5.2-1.6c5,0,8.9,2.8,8.9,8v0.1c0,5.1-4.1,8.7-9.6,8.7
		C32.9,79.4,30.6,78.5,28.9,76.7z M40.2,71L40.2,71c0-2.2-1.7-3.7-4.4-3.7s-4.3,1.5-4.3,3.6v0.1c0,2.1,1.7,3.7,4.4,3.7
		C38.7,74.7,40.2,73.1,40.2,71z"/>
	<path class="st4" d="M49.3,75.7l3.3-4c1.9,1.7,3.8,2.7,6,2.7c2.6,0,4.2-1.3,4.2-3.5v-0.1c0-2.2-1.8-3.4-4.5-3.4
		c-1.6,0-3,0.4-4.2,0.9L51,66.2l0.7-12.4h15.5v4.9H56.5L56.2,63c1-0.3,1.9-0.4,3.3-0.4c4.9,0,8.8,2.4,8.8,8.1v0.1
		c0,5.3-3.8,8.7-9.6,8.7C54.7,79.4,51.8,78,49.3,75.7z"/>
	<path class="st4" d="M73.5,53.8h19.2v5H79v5.4h12v5H79V79h-5.5V53.8z"/>
	<path class="st4" d="M96.5,59.7h5.5v3.9c1.1-2.7,2.9-4.4,6.2-4.2v5.7h-0.3c-3.6,0-5.9,2.2-5.9,6.8V79h-5.5V59.7z"/>
</g>
<g>
	<path class="st4" d="M25.6,94.3h3v6l5.6-6h3.6l-5.6,5.8l5.8,7.9h-3.6l-4.2-5.8l-1.6,1.6v4.2h-3V94.3z"/>
</g>
<g>
	<path class="st4" d="M44.2,94.2H47l5.9,13.8h-3.2l-1.3-3.1h-5.8l-1.3,3.1h-3.1L44.2,94.2z M47.4,102.3l-1.8-4.4l-1.8,4.4H47.4z"/>
	<path class="st4" d="M54.3,102.1v-7.8h3v7.8c0,2.2,1.1,3.4,3,3.4c1.8,0,3-1.1,3-3.3v-7.9h3v7.7c0,4.2-2.3,6.2-6,6.2
		C56.5,108.2,54.3,106.2,54.3,102.1z"/>
	<path class="st4" d="M69.3,94.3h10.4V97h-7.4v2.9h6.5v2.7h-6.5v5.3h-3V94.3z"/>
	<path class="st4" d="M82.1,94.3h10.3V97h-7.3v2.8h6.5v2.7h-6.5v2.9h7.4v2.7H82.1V94.3z"/>
	<path class="st4" d="M95.3,94.3H98l6.4,8.4v-8.4h3V108h-2.6l-6.6-8.7v8.7h-3V94.3z"/>
</g>
</svg>
