<?xml version="1.0" encoding="utf-8"?>
<!-- Generator: Adobe Illustrator 19.2.1, SVG Export Plug-In . SVG Version: 6.00 Build 0)  -->
<svg version="1.1" id="Ebene_1" xmlns="http://www.w3.org/2000/svg" xmlns:xlink="http://www.w3.org/1999/xlink" x="0px" y="0px"
	 viewBox="0 0 132.9 132.9" style="enable-background:new 0 0 132.9 132.9;" xml:space="preserve">
<style type="text/css">
	.st0{fill:#F49739;}
	.st1{clip-path:url(#SVGID_2_);fill:none;stroke:#009FE3;stroke-width:3;stroke-miterlimit:10;}
	.st2{fill:none;stroke:#14A5DF;stroke-width:0.5;stroke-miterlimit:10;}
	.st3{fill:#14A5DF;}
	.st4{fill:#FFFFFF;}
</style>
<polygon class="st0" points="123.9,9 123.9,1.5 9,1.5 9,9 1.5,9 1.5,123.9 9,123.9 9,131.4 123.9,131.4 123.9,123.9 131.4,123.9 
	131.4,9 "/>
<g>
	<defs>
		<rect id="SVGID_1_" width="132.9" height="132.9"/>
	</defs>
	<clipPath id="SVGID_2_">
		<use xlink:href="#SVGID_1_"  style="overflow:visible;"/>
	</clipPath>
	<polygon class="st1" points="123.9,9 123.9,1.5 9,1.5 9,9 1.5,9 1.5,123.9 9,123.9 9,131.4 123.9,131.4 123.9,123.9 131.4,123.9 
		131.4,9 	"/>
</g>
<line class="st2" x1="12.1" y1="115.2" x2="120.8" y2="115.2"/>
<line class="st2" x1="12.1" y1="17.7" x2="120.8" y2="17.7"/>
<polygon class="st3" points="58.3,5.7 59.6,8.7 62.8,9 60.4,11.1 61.1,14.2 58.3,12.6 55.6,14.2 56.3,11.1 53.9,9 57.1,8.7 "/>
<polygon class="st3" points="25.6,5.7 26.8,8.7 30,9 27.6,11.1 28.3,14.2 25.6,12.6 22.8,14.2 23.5,11.1 21.1,9 24.3,8.7 "/>
<polygon class="st3" points="41.9,5.7 43.2,8.7 46.4,9 44,11.1 44.7,14.2 41.9,12.6 39.2,14.2 39.9,11.1 37.5,9 40.7,8.7 "/>
<polygon class="st3" points="74.5,5.7 75.8,8.7 79,9 76.6,11.1 77.3,14.2 74.5,12.6 71.8,14.2 72.5,11.1 70.1,9 73.3,8.7 "/>
<polygon class="st3" points="107.3,5.7 108.6,8.7 111.8,9 109.4,11.1 110.1,14.2 107.3,12.6 104.5,14.2 105.2,11.1 102.8,9 106,8.7 
	"/>
<polygon class="st3" points="90.9,5.7 92.2,8.7 95.4,9 93,11.1 93.7,14.2 90.9,12.6 88.2,14.2 88.9,11.1 86.5,9 89.7,8.7 "/>
<polygon class="st3" points="58.3,118 59.6,121 62.8,121.3 60.4,123.4 61.1,126.5 58.3,124.9 55.6,126.5 56.3,123.4 53.9,121.3 
	57.1,121 "/>
<polygon class="st3" points="25.6,118 26.8,121 30,121.3 27.6,123.4 28.3,126.5 25.6,124.9 22.8,126.5 23.5,123.4 21.1,121.3 
	24.3,121 "/>
<polygon class="st3" points="41.9,118 43.2,121 46.4,121.3 44,123.4 44.7,126.5 41.9,124.9 39.2,126.5 39.9,123.4 37.5,121.3 
	40.7,121 "/>
<polygon class="st3" points="74.5,118 75.8,121 79,121.3 76.6,123.4 77.3,126.5 74.5,124.9 71.8,126.5 72.5,123.4 70.1,121.3 
	73.3,121 "/>
<polygon class="st3" points="107.3,118 108.6,121 111.8,121.3 109.4,123.4 110.1,126.5 107.3,124.9 104.5,126.5 105.2,123.4 
	102.8,121.3 106,121 "/>
<polygon class="st3" points="90.9,118 92.2,121 95.4,121.3 93,123.4 93.7,126.5 90.9,124.9 88.2,126.5 88.9,123.4 86.5,121.3 
	89.7,121 "/>
<g>
	<path class="st4" d="M32.3,24.8h4.5c1.2,0,2.2,0.4,2.9,1c0.5,0.5,0.8,1.3,0.8,2.2v0c0,1.6-0.9,2.6-2.1,3l2.4,3.5h-2.5l-2.1-3.1
		h-1.7v3.1h-2.2V24.8z M36.6,29.6c1.1,0,1.7-0.6,1.7-1.4v0c0-0.9-0.6-1.4-1.7-1.4h-2.1v2.8H36.6z"/>
</g>
<g>
	<path class="st4" d="M42.4,24.8h7.4v1.9h-5.3v2h4.6v1.9h-4.6v2.1h5.3v1.9h-7.5V24.8z"/>
	<path class="st4" d="M51.3,29.7L51.3,29.7c0-2.8,2.2-5.1,5.1-5.1c1.8,0,2.8,0.5,3.9,1.3L59,27.6c-0.8-0.6-1.4-1-2.6-1
		c-1.6,0-2.8,1.4-2.8,3.1v0c0,1.8,1.2,3.1,3,3.1c0.8,0,1.5-0.2,2-0.6v-1.4h-2.2V29h4.3v4.3c-1,0.9-2.4,1.6-4.2,1.6
		C53.4,34.8,51.3,32.6,51.3,29.7z"/>
	<path class="st4" d="M62.6,30.4v-5.6h2.2v5.5c0,1.6,0.8,2.4,2.1,2.4c1.3,0,2.1-0.8,2.1-2.4v-5.6h2.2v5.5c0,3-1.7,4.4-4.3,4.4
		C64.2,34.8,62.6,33.3,62.6,30.4z"/>
	<path class="st4" d="M73.3,24.8h2.2v7.8h4.9v2h-7V24.8z"/>
	<path class="st4" d="M85.3,24.7h2l4.2,9.9h-2.3l-0.9-2.2h-4.1l-0.9,2.2h-2.2L85.3,24.7z M83.8,22.1h2v1.8h-2V22.1z M87.6,30.5
		l-1.3-3.2L85,30.5H87.6z M86.8,22.1h2v1.8h-2V22.1z"/>
	<path class="st4" d="M93,24.8h4.5c1.2,0,2.2,0.4,2.9,1c0.5,0.5,0.8,1.3,0.8,2.2v0c0,1.6-0.9,2.6-2.1,3l2.4,3.5H99l-2.1-3.1h-1.7
		v3.1H93V24.8z M97.4,29.6c1.1,0,1.7-0.6,1.7-1.4v0c0-0.9-0.6-1.4-1.7-1.4h-2.1v2.8H97.4z"/>
</g>
<g>
	<path class="st4" d="M40.7,42.2l0.7-0.7c0.3,0.4,0.7,0.6,1.2,0.6c0.4,0,0.7-0.2,0.7-0.6v0c0-0.4-0.4-0.6-1-0.6h-0.4l-0.2-0.7
		l1.2-1.2H41v-0.9h3.3v0.8L43,40.1c0.7,0.1,1.3,0.5,1.3,1.4v0c0,0.9-0.7,1.6-1.8,1.6C41.7,43.1,41.1,42.7,40.7,42.2z"/>
	<path class="st4" d="M45.1,40.3h2.2v1h-2.2V40.3z"/>
	<path class="st4" d="M48.7,39.1h-1.5v-1h4.1v1h-1.5V43h-1.1V39.1z"/>
	<path class="st4" d="M53.2,38.1h1l2.1,4.9h-1.1l-0.4-1.1h-2.1L52.2,43h-1.1L53.2,38.1z M54.3,41l-0.7-1.6L53,41H54.3z"/>
	<path class="st4" d="M56.5,40.6L56.5,40.6c0-1.4,1.1-2.5,2.6-2.5c0.9,0,1.4,0.2,1.9,0.7l-0.7,0.8C59.9,39.2,59.6,39,59,39
		c-0.8,0-1.4,0.7-1.4,1.5v0c0,0.9,0.6,1.6,1.5,1.6c0.4,0,0.7-0.1,1-0.3v-0.7H59v-0.9h2.1v2.1c-0.5,0.4-1.2,0.8-2.1,0.8
		C57.5,43.1,56.5,42,56.5,40.6z"/>
	<path class="st4" d="M62.2,38.1h3.7v1h-2.6v1h2.3v1h-2.3v1h2.7v1h-3.7V38.1z"/>
	<path class="st4" d="M68,39.1h-1.5v-1h4.1v1h-1.5V43H68V39.1z"/>
	<path class="st4" d="M71.5,38.1h1.1V43h-1.1V38.1z"/>
	<path class="st4" d="M73.5,40.6L73.5,40.6c0-1.4,1.1-2.5,2.6-2.5c0.9,0,1.5,0.3,1.9,0.8l-0.7,0.8C77,39.2,76.6,39,76.1,39
		c-0.8,0-1.4,0.7-1.4,1.5v0c0,0.8,0.6,1.5,1.4,1.5c0.6,0,0.9-0.2,1.3-0.6l0.7,0.7c-0.5,0.5-1.1,0.9-2,0.9
		C74.6,43.1,73.5,42,73.5,40.6z"/>
	<path class="st4" d="M78.9,38.1H80v2.1l2-2.1h1.3l-2,2.1l2.1,2.8h-1.3l-1.5-2.1L80,41.5V43h-1.1V38.1z"/>
	<path class="st4" d="M84,38.1h3.7v1h-2.6v1h2.3v1h-2.3v1h2.7v1H84V38.1z"/>
	<path class="st4" d="M89.9,39.1h-1.5v-1h4.1v1h-1.5V43h-1.1V39.1z"/>
</g>
<g>
	<path class="st4" d="M13.3,74.6l8.4-6.9c3.1-2.6,4.4-4,4.4-6c0-2.1-1.4-3.3-3.4-3.3c-1.9,0-3.3,1.1-5.1,3.4l-3.9-3.1
		c2.5-3.4,4.9-5.2,9.4-5.2c5.2,0,8.7,3.1,8.7,7.8v0.1c0,4.2-2.2,6.3-6.6,9.8l-4.1,3.2h11V79H13.3V74.6z"/>
	<path class="st4" d="M35.5,75.7l3.3-4c1.9,1.7,3.8,2.7,6,2.7c2.6,0,4.2-1.3,4.2-3.5v-0.1c0-2.2-1.8-3.4-4.5-3.4
		c-1.6,0-3,0.4-4.2,0.9l-3.2-2.1l0.7-12.4h15.5v4.9H42.6L42.4,63c1-0.3,1.9-0.4,3.3-0.4c4.9,0,8.8,2.4,8.8,8.1v0.1
		c0,5.3-3.8,8.7-9.6,8.7C40.9,79.4,37.9,78,35.5,75.7z"/>
	<path class="st4" d="M58.6,66.5L58.6,66.5c0-7.4,4.5-13.1,11.2-13.1c6.7,0,11.2,5.7,11.2,13v0.1c0,7.3-4.5,13-11.2,13
		S58.6,73.8,58.6,66.5z M75.3,66.5L75.3,66.5c0-4.6-2.2-8.1-5.5-8.1s-5.5,3.3-5.5,8v0.1c0,4.6,2.2,8,5.5,8
		C73.1,74.4,75.3,71.1,75.3,66.5z"/>
	<path class="st4" d="M85.9,53.8h19.2v5H91.5v5.4h12v5h-12V79h-5.5V53.8z"/>
	<path class="st4" d="M109,59.7h5.5v3.9c1.1-2.7,2.9-4.4,6.2-4.2v5.7h-0.3c-3.6,0-5.9,2.2-5.9,6.8V79H109V59.7z"/>
</g>
<g>
	<path class="st4" d="M25.6,94.3h3v6l5.6-6h3.6l-5.6,5.8l5.8,7.9h-3.6l-4.2-5.8l-1.6,1.6v4.2h-3V94.3z"/>
</g>
<g>
	<path class="st4" d="M44.2,94.2H47l5.9,13.8h-3.2l-1.3-3.1h-5.8l-1.3,3.1h-3.1L44.2,94.2z M47.4,102.3l-1.8-4.4l-1.8,4.4H47.4z"/>
	<path class="st4" d="M54.3,102.1v-7.8h3v7.8c0,2.2,1.1,3.4,3,3.4c1.8,0,3-1.1,3-3.3v-7.9h3v7.7c0,4.2-2.3,6.2-6,6.2
		C56.5,108.2,54.3,106.2,54.3,102.1z"/>
	<path class="st4" d="M69.3,94.3h10.4V97h-7.4v2.9h6.5v2.7h-6.5v5.3h-3V94.3z"/>
	<path class="st4" d="M82.1,94.3h10.3V97h-7.3v2.8h6.5v2.7h-6.5v2.9h7.4v2.7H82.1V94.3z"/>
	<path class="st4" d="M95.3,94.3H98l6.4,8.4v-8.4h3V108h-2.6l-6.6-8.7v8.7h-3V94.3z"/>
</g>
</svg>
